<?xml version="1.0" standalone="no"?>
<!DOCTYPE svg PUBLIC "-//W3C//DTD SVG 1.1//EN" "http://www.w3.org/Graphics/SVG/1.1/DTD/svg11.dtd" >
<svg xmlns="http://www.w3.org/2000/svg">
<metadata>
Created by FontPrep 20130207 at Thu Aug 15 12:15:14 2013
 By Wilfred Denton
Copyright (c) 2001, 2006 Nick Curtis. All Rights Reserved. Distributed under non-exclusive license by 1001 Free Fonts.
</metadata>
<defs>
<font id="959bd76b37b4de3b6b84d01b9d74c913" >
  <font-face 
    font-family="HamburgerHeavenNF"
    font-weight="400"
    font-stretch="normal"
    units-per-em="2048"
    panose-1="2 6 6 6 5 3 4 9 1 3"
    ascent="1599"
    descent="-449"
    x-height="1040"
    cap-height="1509"
    bbox="-307 -516 2669 1962"
    underline-thickness="40"
    underline-position="-252"
    unicode-range="U+0020-FB02"
  />
<missing-glyph horiz-adv-x="409" 
 />
    <glyph glyph-name=".notdef" horiz-adv-x="409" 
 />
    <glyph glyph-name=".null" horiz-adv-x="0" 
 />
    <glyph glyph-name="nonmarkingreturn" horiz-adv-x="681" 
 />
    <glyph glyph-name="space" unicode=" " horiz-adv-x="409" 
 />
    <glyph glyph-name="exclam" unicode="!" horiz-adv-x="450" 
d="M328 133q0 -55 -39 -94t-94.5 -39t-94.5 39t-39 94t39 94t94.5 39t94.5 -39t39 -94zM281 528v-20q0 -59 63 -59l-12 -146q-133 0 -188.5 51.5t-55.5 184.5l35 825h-80l12 145h367l-139 -972q-2 -8 -2 -9z" />
    <glyph glyph-name="quotedbl" unicode="&#x22;" horiz-adv-x="636" 
d="M188 1526q52 0 85.5 -33t33.5 -84v-10q-10 -50 -54.5 -200t-53.5 -228h-115v24l-31 396q0 53 41.5 94t93.5 41zM475 1526q51 0 85 -33t34 -84v-10q-10 -50 -55.5 -202.5t-53.5 -225.5h-114v24l-31 396q0 53 42 94t93 41z" />
    <glyph glyph-name="numbersign" unicode="#" horiz-adv-x="942" 
d="M420 1038l-23 -120h115l23 120h-115zM25 780v138h233l23 120h-256v138h282l62 333h139l-62 -333h115l62 333h139l-62 -333h218v-138h-244l-23 -120h267v-138h-291l-58 -309h-139l57 309h-114l-58 -309h-139l57 309h-208z" />
    <glyph glyph-name="dollar" unicode="$" horiz-adv-x="788" 
d="M473 342q0 76 -47 154l-66 -330q113 51 113 176zM342 1212q0 -78 57 -153l60 305q-117 -35 -117 -152zM66 1086q0 174 110.5 288.5t310.5 134.5l15 76h139l-14 -74h133l-12 -137h-150l-90 -459l147 -190q93 -121 93 -285t-112.5 -286t-305.5 -146l-27 -135h-137l24 129
h-159l12 137h174l100 508l-194 268q-57 79 -57 171z" />
    <glyph glyph-name="percent" unicode="%" horiz-adv-x="1882" 
d="M409 604q42 0 77.5 39t41.5 117l41 457v22q0 61 -26.5 96t-68.5 35t-78 -41t-42 -112l-43 -480q0 -61 28 -97t70 -36zM1408 135q42 0 78 39t42 117l41 457v22q0 61 -26.5 96t-68.5 35t-78 -41t-42 -112l-43 -480q0 -61 27.5 -97t69.5 -36zM465 1509h43q142 0 238 -75
t96 -191v-26l-39 -457q-12 -117 -127 -204t-258 -87h-43q-143 0 -239.5 75t-96.5 189l41 484q12 128 123 210t262 82zM651 0h-147l729 1509h147zM1464 1038h43q139 0 237.5 -74t98.5 -190v-26l-41 -457q-12 -120 -126 -206.5t-259 -86.5h-43q-138 0 -237 74t-99 192l41 484
q12 126 124.5 208t260.5 82z" />
    <glyph glyph-name="ampersand" unicode="&#x26;" horiz-adv-x="1107" 
d="M414 139q47 0 80.5 43t40.5 109l4 45l-185 346l-32 -414q0 -129 92 -129zM384 0q-181 0 -273 102q-63 70 -64 166l39 482q8 119 121 208q-57 103 -70.5 137.5t-13.5 100.5q0 131 106.5 222t257.5 91h396l-13 -137h-333q-154 0 -154 -151q0 -55 31 -111l166 -313l20 243
h483l-12 -137h-209l-47 -547l117 -219h102l-12 -137h-303l-43 80q-111 -80 -292 -80z" />
    <glyph glyph-name="quotesingle" unicode="'" horiz-adv-x="325" 
d="M180 1526q51 0 85 -33t34 -84v-10q0 -16 -46 -170.5t-63 -257.5h-114v24l-31 396q0 53 42 94t93 41z" />
    <glyph glyph-name="parenleft" unicode="(" horiz-adv-x="655" 
d="M535 1372q-37 0 -66 -33.5t-33 -87.5l-125 -1446v-16q0 -47 20.5 -75.5t53.5 -28.5h96l-12 -138h-129q-134 0 -218.5 72t-84.5 188v13q0 12 2 20l121 1377q12 132 110 212t240 80h131l-12 -137h-94z" />
    <glyph glyph-name="parenright" unicode=")" horiz-adv-x="655" 
d="M121 -315q37 0 65.5 33.5t32.5 86.5l125 1446v17q0 47 -20.5 75.5t-53.5 28.5h-96l12 137h129q135 0 219 -72.5t84 -189.5l-122 -1407q-11 -128 -108.5 -210.5t-242.5 -82.5h-131l13 138h94z" />
    <glyph glyph-name="asterisk" unicode="*" horiz-adv-x="673" 
d="M406 872h-136v203l-174 -100l-67 119l170 98l-172 98l69 119l174 -100v200h136v-198l172 100l69 -119l-174 -100l172 -100l-67 -119l-172 98v-199z" />
    <glyph glyph-name="plus" unicode="+" horiz-adv-x="1161" 
d="M668 0h-174v485h-486v174h486v486h174v-486h485v-174h-485v-485z" />
    <glyph glyph-name="comma" unicode="," horiz-adv-x="335" 
d="M160 244q137 0 137 -167q0 -81 -51 -148.5t-152 -71.5v82q67 0 84 53q-8 -2 -20 -2q-53 0 -88 39t-35 91t39 88t86 36z" />
    <glyph glyph-name="hyphen" unicode="-" horiz-adv-x="491" 
d="M418 655h-363l19 205h362z" />
    <glyph glyph-name="period" unicode="." horiz-adv-x="333" 
d="M293 118q0 -52 -37 -89t-89 -37t-89 37t-37 89t36 89t89 37t90 -37t37 -89z" />
    <glyph glyph-name="slash" unicode="/" horiz-adv-x="1126" 
d="M193 -416h-189l930 1925h188z" />
    <glyph glyph-name="zero" unicode="0" horiz-adv-x="899" 
d="M419 127q42 0 77.5 43t42.5 121l39 459v22q0 57 -27 93t-72 36t-77.5 -43t-39.5 -108l-40 -484q0 -68 27.5 -103.5t69.5 -35.5zM475 1040h43q140 0 237 -74.5t97 -189.5v-26l-41 -459q-12 -120 -123.5 -205.5t-261.5 -85.5h-41q-140 0 -239 74.5t-99 189.5l43 486
q12 125 123.5 207.5t261.5 82.5z" />
    <glyph glyph-name="one" unicode="1" horiz-adv-x="595" 
d="M537 0h-500l12 137h113l67 766h-116l12 137h389l-78 -903h113z" />
    <glyph glyph-name="two" unicode="2" horiz-adv-x="851" 
d="M813 784q0 -166 -151 -327l-304 -320h361l-12 -137h-670l12 135l430 440q88 90 88 189q0 139 -125 139q-63 0 -117.5 -41t-60.5 -112l-4 -45h-137l4 45q12 134 111 212t249 78t238 -67.5t88 -188.5z" />
    <glyph glyph-name="three" unicode="3" horiz-adv-x="868" 
d="M756 287v-25l-29 -332q-12 -115 -125.5 -202.5t-259.5 -87.5h-43q-115 0 -191.5 80.5t-76.5 209.5h137q0 -97 51 -126t92 -29q127 0 142 155l34 385v19q0 84 -77 84h-217l282 485h-328l13 137h674l-289 -501q94 -27 152.5 -95.5t58.5 -156.5z" />
    <glyph glyph-name="four" unicode="4" horiz-adv-x="1042" 
d="M371 137h202l35 393zM993 0h-157l-33 -360h-273l31 360h-555l625 1040h295l-78 -903h158z" />
    <glyph glyph-name="five" unicode="5" horiz-adv-x="811" 
d="M762 289v-27l-31 -332q-12 -122 -125 -206t-260 -84h-43q-115 0 -191.5 83t-76.5 207h139q0 -60 38 -107.5t103 -47.5q131 0 144 155l30 367v22q0 98 -75 99h-285l55 622h586l-10 -137h-314l-28 -348q143 0 243.5 -74t100.5 -192z" />
    <glyph glyph-name="six" unicode="6" horiz-adv-x="888" 
d="M415 143q42 0 77.5 39t42.5 109l38 459v22q0 61 -25.5 96t-70.5 35t-77.5 -43t-39.5 -108l-41 -461l-2 -21q0 -59 28 -93t70 -34zM608 1286q-88 0 -149.5 -54t-67.5 -130l-6 -70q31 8 86 8h43q140 0 237 -74.5t97 -189.5v-26l-41 -459q-12 -120 -123.5 -205.5
t-261.5 -85.5h-41q-142 0 -240 74.5t-98 189.5l66 752q16 172 165.5 289.5t346.5 117.5h167l-12 -137h-168z" />
    <glyph glyph-name="seven" unicode="7" horiz-adv-x="827" 
d="M313 -360h-276l455 1263h-451l12 137h764z" />
    <glyph glyph-name="eight" unicode="8" horiz-adv-x="923" 
d="M416 139q43 0 77.5 40t41.5 112l30 373v22q0 57 -26.5 93t-70.5 36t-77 -43t-39 -108l-35 -396q0 -61 28 -95t71 -34zM510 1288q-44 0 -82.5 -63t-38.5 -107q0 -71 27.5 -118.5t59.5 -47.5q56 0 94 59.5t38 137.5t-38 108.5t-60 30.5zM115 1099q0 141 116 232.5t286 91.5
q169 0 266.5 -72.5t97.5 -205.5q0 -162 -144 -260q102 -78 103 -195v-26l-33 -373q-12 -120 -123.5 -205.5t-261.5 -85.5h-43q-140 0 -238 74.5t-98 189.5l35 400q12 141 141 221q-47 29 -75.5 87t-28.5 127z" />
    <glyph glyph-name="nine" unicode="9" horiz-adv-x="888" 
d="M411 137q42 0 78.5 40t42.5 112l39 461v20q0 59 -26.5 93t-68.5 34t-78 -39t-42 -108l-41 -482q0 -63 27 -97t69 -34zM469 1040h43q135 0 234.5 -73.5t99.5 -190.5v-26l-62 -705q-16 -171 -162.5 -288t-349.5 -117h-168l13 135h168q88 0 150.5 54t68.5 130l4 49
q-35 -8 -88 -8h-43q-140 0 -238 74.5t-98 189.5l43 486q12 119 123.5 204.5t261.5 85.5z" />
    <glyph glyph-name="colon" unicode=":" horiz-adv-x="368" 
d="M285 118q0 -52 -37 -89t-89 -37t-89 37t-37 89t35.5 89t89 37t90.5 -37t37 -89zM338 615q0 -52 -37 -89t-89 -37t-89 37t-37 89t36 89t89 37t90 -37t37 -89z" />
    <glyph glyph-name="semicolon" unicode=";" horiz-adv-x="362" 
d="M150 244q137 0 137 -167q0 -81 -51.5 -148.5t-151.5 -71.5v82q67 0 84 53q-8 -2 -21 -2q-53 0 -87.5 39t-34.5 91t38.5 88t86.5 36zM334 615q0 -52 -37 -89t-89 -37t-89 37t-37 89t36 89t89 37t90 -37t37 -89z" />
    <glyph glyph-name="less" unicode="&#x3c;" horiz-adv-x="1134" 
d="M4 825l1096 435v-175l-840 -331l840 -330v-174l-1096 432v143z" />
    <glyph glyph-name="equal" unicode="=" horiz-adv-x="1224" 
d="M59 252v174h1145v-174h-1145zM59 707v174h1145v-174h-1145z" />
    <glyph glyph-name="greater" unicode="&#x3e;" horiz-adv-x="1159" 
d="M1155 682l-1096 -432v174l840 330l-840 331v175l1096 -435v-143z" />
    <glyph glyph-name="question" unicode="?" horiz-adv-x="827" 
d="M301 133q0 -55 -39 -94t-94 -39t-94 39t-39 94t39 94t94 39t94 -39t39 -94zM817 1159q0 -201 -217 -356q-41 -23 -142 -85q-101 -63 -130 -84.5t-47.5 -46.5t-22.5 -85l-16 -174h-148l25 262q8 99 47 164.5t138 136.5t139 134t40 149t-48 138t-126 52h-198l12 145h235
q199 0 329 -97.5t130 -252.5z" />
    <glyph glyph-name="at" unicode="@" horiz-adv-x="1693" 
d="M762 539q0 -92 55 -93q61 0 72 123l43 488q-87 0 -109 -20t-26 -89l-33 -379q-2 -10 -2 -30zM864 1192h355l-52 -576q-2 -10 -2 -12v-24q0 -111 72 -111q98 0 156.5 105t58.5 238q0 256 -146 408t-386 152q-127 0 -238 -54t-192.5 -147.5t-128 -217.5t-46.5 -250
q0 -241 142 -403.5t354 -162.5h340l-12 -137h-340q-160 0 -299.5 50t-240.5 141.5t-159.5 218t-58.5 288.5t71.5 311.5t192.5 261t283 175t336 63.5q343 0 539 -177.5t196 -491.5q0 -40 -4 -86q-37 -436 -414 -437q-129 0 -217 56q-90 -55 -203 -56h-33q-129 0 -214 66.5
t-85 165.5l33 393q8 109 110 179.5t232 70.5z" />
    <glyph glyph-name="A" unicode="A" 
d="M672 1249q0 53 -30 88t-84 35t-92 -41t-42 -100l-47 -533h248l47 533v18zM795 0q-100 0 -157.5 49t-57.5 137q0 16 2 27l30 348h-247l-50 -561h-272l104 1192q12 144 133 230.5t287 86.5q165 0 271 -76.5t106 -207.5l-88 -1024q0 -59 59 -64l-12 -137h-108z" />
    <glyph glyph-name="B" unicode="B" horiz-adv-x="940" 
d="M600 606q0 51 -34 89t-85 38h-96l-53 -598h88q55 0 101 42t50 99l29 318v12zM621 1241q0 53 -37 92t-90 39h-54l-43 -502h70q53 8 92 48t43 92l19 221v10zM870 566q0 -1 -2 -11l-20 -238q-12 -130 -114 -223.5t-230 -93.5h-455l119 1372h-78l10 137h502q118 0 204.5 -81
t86.5 -203l-2 -33l-12 -141q-12 -135 -125 -236q117 -86 116 -225v-24z" />
    <glyph glyph-name="C" unicode="C" horiz-adv-x="856" 
d="M477 1509h354l-12 -137h-317q-37 0 -65.5 -33.5t-33.5 -87.5l-84 -960l-2 -27q0 -59 33.5 -94t97.5 -35t115 44t58 112h137q-8 -113 -117 -202t-231 -89q-186 0 -275.5 75t-89.5 191l82 951q18 200 149.5 246t200.5 46z" />
    <glyph glyph-name="D" unicode="D" horiz-adv-x="974" 
d="M659 1245q0 53 -36.5 90t-92.5 37h-86l-108 -1237h86q55 0 102 42t51 99l84 955v14zM639 1509q118 0 204.5 -81t86.5 -203l-78 -908q-12 -129 -112.5 -223t-231.5 -94h-457l121 1372h-80l12 137h535z" />
    <glyph glyph-name="E" unicode="E" horiz-adv-x="860" 
d="M444 135h277l-12 -135h-373q-122 0 -206.5 82.5t-84.5 202.5v11q0 11 2 21l76 875q12 133 116 225t230 92h373l-13 -137h-276q-59 0 -104.5 -42t-49.5 -99l-34 -408h342l-11 -137h-344l-37 -410l-2 -14q0 -53 37 -90t94 -37z" />
    <glyph glyph-name="F" unicode="F" horiz-adv-x="833" 
d="M872 1372h-432l-49 -549h299l-12 -137h-299l-60 -686h-274l133 1509h705z" />
    <glyph glyph-name="G" unicode="G" horiz-adv-x="1019" 
d="M471 1509h522l-12 -137h-487q-37 0 -65 -33.5t-32 -87.5l-84 -960q-2 -10 -2 -27q0 -61 34.5 -95t96.5 -34t113 44t57 112l47 532h275l-86 -979q-12 -119 -126.5 -206t-258.5 -87h-277l13 138h223q59 0 102 45t49 110l19 201q-72 -45 -159 -45q-179 0 -287.5 67.5
t-108.5 198.5l82 951q13 132 110 212t242 80z" />
    <glyph glyph-name="H" unicode="H" horiz-adv-x="1040" 
d="M815 0q-96 0 -154.5 48t-58.5 142l43 496h-260l-59 -686h-275l121 1372h-78l12 137h351l-60 -686h258l60 686h274l-112 -1308q0 -63 67 -64l-12 -137h-117z" />
    <glyph glyph-name="I" unicode="I" horiz-adv-x="466" 
d="M305 0h-274l131 1509h274z" />
    <glyph glyph-name="J" unicode="J" horiz-adv-x="536" 
d="M2 -449h-309l12 138h223q139 0 152 155l145 1665h275l-146 -1665q-12 -128 -112.5 -210.5t-239.5 -82.5z" />
    <glyph glyph-name="K" unicode="K" horiz-adv-x="1032" 
d="M668 866q96 0 155.5 -47t59.5 -127q0 -17 -4 -39l-37 -452q0 -61 61 -64l-12 -137h-113q-96 0 -154.5 48t-58.5 142l39 474q0 66 -69 65h-146l-63 -729h-275l121 1372h-80l12 137h353l-49 -575l376 575h207l-420 -643h97z" />
    <glyph glyph-name="L" unicode="L" horiz-adv-x="710" 
d="M260 0q-96 0 -154.5 48t-58.5 142l103 1182h-76l12 137h348l-110 -1308q0 -63 69 -64h307l-10 -137h-430z" />
    <glyph glyph-name="M" unicode="M" horiz-adv-x="1511" 
d="M565 1362h-119l-118 -1362h-275l121 1372h-80l12 137h988q164 0 264 -80.5t100 -211.5v-31l-82 -985q0 -61 62 -64l-13 -137h-112q-96 0 -154.5 47t-58.5 143l86 1012l2 35q0 125 -107 125h-118l-121 -1362h-275l107 1202l2 33q0 127 -111 127z" />
    <glyph glyph-name="N" unicode="N" horiz-adv-x="995" 
d="M795 0q-98 0 -156.5 50t-58.5 136v10q0 11 2 17l86 973l2 28q0 70 -30 109t-77 39h-119l-118 -1362h-275l119 1372h-82l12 137h475q162 0 265.5 -79t103.5 -209l-86 -1020q0 -59 60 -64l-13 -137h-110z" />
    <glyph glyph-name="O" unicode="O" horiz-adv-x="997" 
d="M445 135q58 0 103.5 41t49.5 100l82 955v10q0 53 -37 92t-92 39t-101.5 -42t-50.5 -99l-84 -955l-2 -14q0 -53 37 -90t95 -37zM477 0h-90q-150 0 -246 81t-96 206q0 20 2 30l76 875q12 134 122.5 225.5t274.5 91.5h88q148 0 246 -80t98 -206l-80 -906
q-12 -139 -123.5 -228t-271.5 -89z" />
    <glyph glyph-name="P" unicode="P" horiz-adv-x="944" 
d="M659 1245q0 53 -36.5 90t-92.5 37h-86l-53 -606h86q55 0 102.5 42t51.5 99l28 324v14zM563 631h-184l-53 -631h-275l121 1372h-80l12 137h535q122 0 205.5 -85.5t83.5 -204.5v-27l-21 -246q-12 -131 -112.5 -223t-231.5 -92z" />
    <glyph glyph-name="Q" unicode="Q" horiz-adv-x="980" 
d="M437 135q58 0 103.5 41t49.5 100l82 955v10q0 53 -37 92t-92 39t-101.5 -42t-50.5 -99l-84 -955l-2 -14q0 -53 37 -90t95 -37zM672 -256h35l-13 -135h-131q-121 0 -206 81t-85 201v9q0 8 11 110q-117 25 -181.5 99.5t-64.5 177.5q0 20 2 30l76 875q12 136 122.5 226.5
t274.5 90.5h88q148 0 246 -80t98 -206l-80 -906q-10 -117 -92 -202.5t-217 -108.5l-14 -135q0 -53 36.5 -90t94.5 -37z" />
    <glyph glyph-name="R" unicode="R" horiz-adv-x="980" 
d="M565 1372h-121l-45 -506h140q86 0 96 103l24 307q0 41 -24.5 68.5t-69.5 27.5zM778 0q-213 0 -213 188q0 16 2 25l35 442q0 74 -67 74h-148l-63 -729h-273l119 1372h-80l12 135h494q156 0 246 -69.5t90 -192.5q0 -316 -119 -422q66 -49 66 -147v-8l-39 -471q0 -59 67 -60
l-12 -137h-117z" />
    <glyph glyph-name="S" unicode="S" horiz-adv-x="778" 
d="M561 1372q-175 0 -198 -65.5t-23 -96.5q0 -80 61 -159l252 -328q92 -121 92 -277q0 -195 -141.5 -320.5t-372.5 -125.5h-202l14 137h176q123 0 187.5 56.5t64.5 144.5t-68 184l-282 391q-59 85 -59 179q-1 180 130.5 298.5t331.5 118.5h181l-13 -137h-131z" />
    <glyph glyph-name="T" unicode="T" horiz-adv-x="727" 
d="M702 1372h-196l-119 -1372h-274l120 1372h-196l12 135h666z" />
    <glyph glyph-name="U" unicode="U" horiz-adv-x="1005" 
d="M844 209q0 -72 86 -72l-12 -137h-121q-111 0 -176 59q-109 -59 -243 -59t-230.5 74t-96.5 194l94 1104h-73l12 135h346l-104 -1222q0 -137 112 -138q55 0 94 49.5t43 110.5l103 1202h276l-110 -1280v-20z" />
    <glyph glyph-name="V" unicode="V" horiz-adv-x="980" 
d="M324 -2h-275l119 1374h-72l13 137h348l-121 -1374q86 0 153.5 61t75.5 144l103 1169h274l-88 -1013q-16 -201 -172 -349.5t-358 -148.5z" />
    <glyph glyph-name="W" unicode="W" horiz-adv-x="1515" 
d="M420 0q-163 0 -265 80.5t-102 208.5v16t2 19l90 1048h-77l12 137h352l-104 -1204q-2 -10 -2 -11v-22q0 -125 108 -125h119l119 1362h274l-104 -1204q-2 -10 -2 -11v-22q0 -125 108 -125h119l119 1362h274l-119 -1372h109l-10 -137h-1020z" />
    <glyph glyph-name="X" unicode="X" horiz-adv-x="1060" 
d="M540 840q58 0 103 41t49 98l45 530h275l-43 -489q-16 -166 -160 -254q117 -82 117 -221l-29 -344q0 -61 55 -64l-12 -137h-102q-100 0 -157.5 49t-57.5 137q0 16 2 27l30 338v14q0 53 -36.5 90t-92.5 37t-102.5 -42t-50.5 -99l-49 -551h-273l45 512q16 166 160 254
q-117 80 -117 221v11q0 12 2 22l31 352h-80l12 137h353l-47 -530l-2 -14q0 -53 37 -89t95 -36z" />
    <glyph glyph-name="Y" unicode="Y" horiz-adv-x="972" 
d="M78 1008q0 20 2 30l29 334h-76l12 137h348l-45 -522q0 -53 38 -91t93 -38t101.5 41t50.5 98l43 512h274l-43 -471q-10 -113 -89 -196.5t-208 -110.5l-63 -731h-273l64 729q-123 23 -190.5 97.5t-67.5 181.5z" />
    <glyph glyph-name="Z" unicode="Z" horiz-adv-x="1058" 
d="M383 137h537l-13 -137h-884l645 1372h-414l12 135h764z" />
    <glyph glyph-name="bracketleft" unicode="[" horiz-adv-x="657" 
d="M631 1372h-164l-148 -1685h164l-16 -138h-432l172 1960h436z" />
    <glyph glyph-name="backslash" unicode="\" horiz-adv-x="864" 
d="M670 -416l-664 1925h189l663 -1925h-188z" />
    <glyph glyph-name="bracketright" unicode="]" horiz-adv-x="657" 
d="M29 -315h164l147 1685h-164l17 137h432l-172 -1960h-437z" />
    <glyph glyph-name="asciicircum" unicode="^" horiz-adv-x="1079" 
d="M184 348l-159 66l432 1032h164l434 -1032l-160 -66l-356 846z" />
    <glyph glyph-name="underscore" unicode="_" horiz-adv-x="1142" 
d="M59 -147v102h1024v-102h-1024z" />
    <glyph glyph-name="grave" unicode="`" horiz-adv-x="460" 
d="M385 1094l-371 172l58 125l372 -174z" />
    <glyph glyph-name="a" unicode="a" horiz-adv-x="1011" 
d="M438 137q63 0 112.5 45t55.5 109l53 612h-196q-86 0 -96 -102l-45 -527l-3 -22q0 -115 119 -115zM846 0q-143 0 -209 84q-90 -84 -211 -84h-43q-138 0 -237 74.5t-99 189.5q0 16 2 27l39 459q12 126 124.5 208t260.5 82h473l-69 -811l-3 -16q0 -72 80 -76l-12 -137h-96z
" />
    <glyph glyph-name="b" unicode="b" horiz-adv-x="1052" 
d="M754 819q0 84 -78 84h-197l-55 -612v-15q0 -59 41 -99t100 -40q129 0 142 137l47 527v18zM135 0h-100l12 137q86 2 96 92l113 1280h379l-10 -137h-105l-28 -332h196q140 0 237 -74.5t97 -189.5v-26l-41 -459q-12 -128 -124.5 -209.5t-266.5 -81.5t-232 84
q-84 -84 -223 -84z" />
    <glyph glyph-name="c" unicode="c" horiz-adv-x="798" 
d="M459 903q-39 0 -65.5 -38t-31.5 -81l-47 -538q0 -45 35 -77t91 -32t105.5 45t55.5 109h137q-8 -114 -103 -202.5t-214 -88.5h-43q-143 0 -238.5 74.5t-95.5 193.5l41 482q12 126 123 208t262 82h291l-12 -137h-291z" />
    <glyph glyph-name="d" unicode="d" horiz-adv-x="1015" 
d="M412 137q63 0 112 45t56 109l55 612h-199q-84 0 -94 -102l-45 -527l-2 -22q0 -115 117 -115zM821 0q-139 0 -211 84q-90 -84 -236 -84t-248.5 71t-102.5 193q0 16 2 27l38 459q12 127 125.5 208.5t260.5 81.5h196l31 332h-78l12 137h353l-113 -1280l-2 -16q0 -76 88 -76
l-12 -137h-103z" />
    <glyph glyph-name="e" unicode="e" horiz-adv-x="813" 
d="M637 750v14q0 59 -42 99t-87 40q-78 0 -120 -54.5t-42 -129.5q0 -131 96 -131h254l-12 -135h-252q-55 0 -89 -52.5t-34 -115.5t31 -106.5t90 -43.5t109.5 42t56.5 114h137q-12 -133 -110.5 -212t-240.5 -79t-241.5 80.5t-99.5 189.5q0 158 141 250q-102 96 -102 218
t116.5 212t262.5 90q147 0 232 -69.5t85 -188.5l-2 -32h-137z" />
    <glyph glyph-name="f" unicode="f" horiz-adv-x="839" 
d="M662 1372q-35 0 -64 -34.5t-33 -86.5l-18 -211h149l-12 -137h-149l-93 -1059q-12 -124 -118 -208.5t-250 -84.5h-156l12 138h140q86 0 96 121l94 1093h-129l12 137h129l17 177q13 131 108.5 211.5t241.5 80.5h190l-12 -137h-155z" />
    <glyph glyph-name="g" unicode="g" horiz-adv-x="884" 
d="M329 -369q40 0 72.5 32t38.5 87l9 78h-207l-6 -92q0 -49 26.5 -77t66.5 -28zM356 342q68 0 76 107l33 352v16q0 43 -18.5 65.5t-46.5 22.5t-48 -27.5t-24 -76.5l-33 -375q0 -84 61 -84zM383 1040h465l-12 -137h-115q16 -37 16 -80v-22l-30 -352q-8 -113 -119 -183
q147 -102 147 -264l-2 -37h88l-12 -137h-88l-6 -78q-8 -101 -104.5 -171.5t-225.5 -70.5h-135q-120 0 -205.5 62t-85.5 160l21 235h481v19q0 77 -47.5 150t-106.5 73q-119 0 -203 62t-84 159l33 373q8 98 101.5 168.5t228.5 70.5z" />
    <glyph glyph-name="h" unicode="h" horiz-adv-x="966" 
d="M872 190q0 -33 11.5 -45t56.5 -12l-12 -137h-107q-100 0 -162.5 50t-62.5 136l47 559v29q0 127 -98 127h-111l-78 -897h-274l121 1372h-80l12 137h352l-41 -469h111q166 0 263.5 -73.5t97.5 -204.5l-46 -557v-15z" />
    <glyph glyph-name="i" unicode="i" horiz-adv-x="462" 
d="M352 0q-141 0 -223 61.5t-82 169.5q0 16 2 25l57 647h-77l12 137h350l-67 -784l-2 -18q0 -88 84 -101l-13 -137h-41zM418 1370q0 -57 -41 -99t-98.5 -42t-98.5 41t-41 99t41 99t98.5 41t98.5 -41t41 -98z" />
    <glyph glyph-name="j" unicode="j" horiz-adv-x="563" 
d="M27 -311q84 0 96 121l96 1093h-74l13 137h348l-105 -1196q-12 -123 -127.5 -208t-259.5 -85h-137l12 138h138zM530 1370q0 -57 -41 -99t-99 -42t-99 42t-41 99t41 98t98 41t99 -41t42 -98z" />
    <glyph glyph-name="k" unicode="k" horiz-adv-x="999" 
d="M852 391v-24l-10 -154q0 -74 69 -76l-10 -137h-94q-115 0 -178.5 46t-63.5 130l13 207q0 68 -29 115t-81 47t-99 -33l-45 -512h-273l119 1372h-78l12 137h353l-70 -790l324 321h272l-375 -370q117 -29 180.5 -101.5t63.5 -177.5z" />
    <glyph glyph-name="l" unicode="l" horiz-adv-x="509" 
d="M387 0q-141 0 -223 61.5t-82 169.5q0 16 2 25l98 1116h-73l12 137h346l-109 -1253l-2 -20q0 -90 86 -99l-10 -137h-45z" />
    <glyph glyph-name="m" unicode="m" horiz-adv-x="1484" 
d="M1294 0q-100 0 -163.5 49t-63.5 137l51 602q0 45 -26.5 80t-73.5 35h-111l-80 -903h-274l68 788q0 45 -27 80t-74 35h-110l-80 -903h-273l78 903h-72l13 137h954q170 0 266.5 -68.5t96.5 -197.5l-47 -549q-6 -24 -2 -45.5t16.5 -32t73.5 -10.5l-13 -137h-127z" />
    <glyph glyph-name="n" unicode="n" horiz-adv-x="974" 
d="M850 207q0 -41 11 -55.5t67 -14.5l-13 -137h-116q-104 0 -166 50t-62 136l52 600q0 51 -30 84t-71 33h-110l-80 -903h-275l80 903h-78l13 137h463q170 0 265 -68.5t95 -197.5l-45 -549v-18z" />
    <glyph glyph-name="o" unicode="o" horiz-adv-x="899" 
d="M419 137q42 0 77.5 38t42.5 116l39 459v22q0 63 -27 96t-72 33t-77.5 -43t-39.5 -108l-40 -482q0 -59 27.5 -95t69.5 -36zM426 0h-41q-140 0 -239 74.5t-99 189.5q0 16 2 27l41 459q12 125 123.5 207.5t261.5 82.5h43q140 0 237 -74.5t97 -189.5v-26l-41 -459
q-12 -120 -123.5 -205.5t-261.5 -85.5z" />
    <glyph glyph-name="p" unicode="p" horiz-adv-x="940" 
d="M485 137q43 0 78 40t41 114l43 493v19q0 100 -92 100h-111l-57 -635q0 -61 27.5 -96t70.5 -35zM451 0q-55 0 -86 8l-39 -457h-275l119 1352h-78l10 137h482q138 0 237 -74t99 -190v-26l-41 -459q-12 -124 -124.5 -207.5t-260.5 -83.5h-43z" />
    <glyph glyph-name="q" unicode="q" horiz-adv-x="970" 
d="M398 137q42 0 78 41t42 113l53 612h-127q-86 0 -96 -102l-47 -533q0 -61 27.5 -96t69.5 -35zM408 0h-43q-143 0 -239.5 75t-96.5 189q0 16 2 27l39 459q12 128 125 209t260 81h481l-12 -137h-78l-119 -1352h-272l39 457q-31 -8 -86 -8z" />
    <glyph glyph-name="r" unicode="r" horiz-adv-x="792" 
d="M688 1040h92l-26 -284h-150l10 135q-145 -56 -187 -163t-46 -159l-49 -569h-275l80 903h-78l13 137h350l-6 -88q106 88 272 88z" />
    <glyph glyph-name="s" unicode="s" horiz-adv-x="763" 
d="M266 137q127 0 127 121q0 68 -45 119l-164 186q-80 88 -80 206t100.5 194.5t250.5 76.5h225l-12 -137h-162q-102 0 -103 -61q0 -33 27 -66l201 -248q92 -114 92 -238t-102.5 -207t-260.5 -83h-325l12 137h219z" />
    <glyph glyph-name="t" unicode="t" horiz-adv-x="567" 
d="M332 0q-117 0 -184.5 59.5t-67.5 165.5l59 678h-108l12 137h109l20 242h274l-22 -242h119l-13 -137h-116l-58 -649l-2 -18q0 -88 86 -97l-12 -139h-96z" />
    <glyph glyph-name="u" unicode="u" horiz-adv-x="952" 
d="M393 0q-147 0 -236 72.5t-89 203.5v14q0 15 2 25l51 588h-72l12 137h345l-64 -759v-17q0 -53 25.5 -90t72.5 -37h99l79 903h275l-78 -903h80l-12 -137h-490z" />
    <glyph glyph-name="v" unicode="v" horiz-adv-x="948" 
d="M332 -2h-275l78 905h-72l13 137h348l-80 -905q86 0 153.5 61t75.5 144l62 700h274l-47 -544q-16 -201 -172 -349.5t-358 -148.5z" />
    <glyph glyph-name="w" unicode="w" horiz-adv-x="1495" 
d="M440 0q-172 0 -267 68.5t-95 197.5q0 20 2 31l53 606h-80l10 137h359l-70 -788q0 -49 30 -82t71 -33h112l78 903h275l-68 -788q0 -49 29.5 -82t70.5 -33h111l80 903h274l-80 -903h105l-13 -137h-987z" />
    <glyph glyph-name="x" unicode="x" horiz-adv-x="1064" 
d="M449 780v-22q0 -72 26.5 -112t68.5 -40t77.5 49.5t44.5 135.5l22 249h328l-12 -137h-54l-10 -112q-12 -148 -160 -259q55 -37 85 -105.5t30 -127.5v-25l-12 -137h69l-12 -137h-344l25 274l2 33q0 72 -27 113t-69 41t-77.5 -49.5t-43.5 -137.5l-23 -274h-334l10 137h62
l12 137q6 72 47 141.5t111 116.5q-61 55 -88 107.5t-27 124.5l10 139h-63l12 137h338l-22 -249q-2 -10 -2 -11z" />
    <glyph glyph-name="y" unicode="y" horiz-adv-x="919" 
d="M383 -311q102 0 113 121l16 190h-90q-158 0 -259.5 78.5t-101.5 206.5q0 20 2 30l52 588h-74l12 137h348l-67 -776v-18q0 -109 100 -109h90l80 903h275l-105 -1196q-12 -122 -127 -207.5t-260 -85.5h-276l12 138h260z" />
    <glyph glyph-name="z" unicode="z" horiz-adv-x="1079" 
d="M463 137h469l-12 -137h-883l579 903h-464l12 137h878z" />
    <glyph glyph-name="braceleft" unicode="{" horiz-adv-x="733" 
d="M383 -211q0 -47 21.5 -75.5t54.5 -28.5h96l-12 -138h-129q-136 0 -219.5 72t-83.5 188v13q0 12 2 20l45 500v14q0 55 -39 94t-96 39l6 82q57 0 107 43.5t54 104.5l43 500q12 133 112 212.5t239 79.5h131l-13 -137h-96q-35 0 -63.5 -33.5t-32.5 -87.5l-39 -448
q-14 -168 -168 -273q123 -94 123 -237l-43 -488v-16z" />
    <glyph glyph-name="bar" unicode="|" horiz-adv-x="299" 
d="M59 -516v2052h174v-2052h-174z" />
    <glyph glyph-name="braceright" unicode="}" horiz-adv-x="731" 
d="M575 702q0 -55 39 -94t97 -39l-6 -82q-96 0 -128 -58t-34 -89l-43 -500q-11 -128 -108.5 -210.5t-241.5 -82.5h-132l13 138h96q35 0 63.5 33.5t32.5 86.5l39 449q14 168 168 272q-123 92 -123 238v11q0 11 2 22l41 454v17q0 47 -21.5 75.5t-54.5 28.5h-96l12 137h129
q135 0 219.5 -72.5t84.5 -189.5l-48 -530v-15z" />
    <glyph glyph-name="asciitilde" unicode="~" horiz-adv-x="1490" 
d="M406 815q-72 0 -129.5 -47t-71.5 -147l-172 20q15 156 121.5 252t259.5 96q109 0 204 -53l343 -188q45 -25 91 -25q85 0 156 60t80 128l172 -20q-20 -137 -137 -239.5t-279 -102.5q-84 0 -170 47l-342 188q-54 31 -126 31z" />
    <glyph glyph-name="nonbreakingspace" unicode="&#xa0;" horiz-adv-x="409" 
 />
    <glyph glyph-name="exclamdown" unicode="&#xa1;" horiz-adv-x="450" 
d="M123 962.5q0 55.5 39 94.5t94 39t94 -39t39 -94.5t-39 -94.5t-94 -39t-94 39t-39 94.5zM170 568v20q0 59 -64 59l13 146q133 0 187 -51.5t56 -184.5l-34 -825h80l-13 -146h-366l139 973q2 8 2 9z" />
    <glyph glyph-name="cent" unicode="&#xa2;" horiz-adv-x="757" 
d="M412 1133q-66 -29 -72 -115l-47 -537q0 -61 53 -92zM727 1137h-178l-66 -750q88 47 97 137h137q-8 -98 -77 -178t-169 -104l-20 -242h-138l21 233q-136 8 -223.5 84t-87.5 185l40 481q12 120 112 201.5t249 89.5l20 235h138l-21 -235h178z" />
    <glyph glyph-name="sterling" unicode="&#xa3;" horiz-adv-x="1013" 
d="M700 1376q-68 0 -115.5 -45t-54.5 -114l-38 -445h208l-10 -137h-211l-28 -344q-6 -82 -66 -154h438l-12 -137h-782l12 137h35q86 0 96 103l35 395h-121l10 137h123l39 445q12 128 123 210t262 82h78q113 0 189.5 -78t76.5 -190v-24h-137l2 22q0 61 -42 99t-110 38z" />
    <glyph glyph-name="currency" unicode="&#xa4;" horiz-adv-x="983" 
d="M825 1217v14q0 66 -43.5 102.5t-107.5 36.5t-113 -41t-55 -112l-25 -299h353l-89 -138h-276l-4 -53h248l-88 -135h-172l-31 -336v-16q0 -45 21.5 -74t54.5 -29h180l-12 -137h-181q-139 0 -237 74.5t-98 189.5v10q0 11 2 17l26 301h-149l86 135h75l5 53h-150l88 138h74
l22 266q12 146 124 235.5t265 89.5h76q114 0 190.5 -78t76.5 -190v-24h-136z" />
    <glyph glyph-name="yen" unicode="&#xa5;" horiz-adv-x="1054" 
d="M430 978q0 -42 30 -85t78 -43t87 46t47 132l43 481h272l-43 -481q-2 -43 -16 -84h98l-12 -137h-183q-37 -33 -81 -53h260l-13 -138h-344l-53 -616h-274l53 616h-350l12 138h268q-40 20 -73 53h-191l12 137h105q-6 31 -6 57l32 371h-84l11 137h360l-43 -479q-2 -10 -2 -52
z" />
    <glyph glyph-name="brokenbar" unicode="&#xa6;" horiz-adv-x="292" 
d="M59 -514v983h174v-983h-174zM59 551v983h174v-983h-174z" />
    <glyph glyph-name="section" unicode="&#xa7;" horiz-adv-x="2656" 
d="M774 1260q-59 0 -102 -42t-43 -102v-100h321q59 0 101.5 43t42.5 102v99h-320zM1270 1436v-275q0 -131 -94 -225t-226 -94h-493v274q0 131 94.5 225.5t222.5 94.5h496zM1708 1260q-59 0 -102 -42t-43 -102v-100h319q59 0 101 43t42 102v99h-317zM2202 1436v-275
q0 -130 -94.5 -224.5t-225.5 -94.5h-491v274q0 133 93.5 226.5t223.5 93.5h494zM336 1436v-594h-176v418h-101v176h277zM735 319q-39 0 -65.5 -25.5t-26.5 -64.5v-63h193q37 0 63.5 25.5t26.5 64.5v63h-191zM1010 406v-150q0 -72 -51.5 -123t-122.5 -51h-275v147
q0 74 51.5 125.5t122.5 51.5h275zM1544 82h-125q-28 108 -102 167q-75 58 -148 68v-235h-84v324h48q113 0 221 -78q66 -53 106 -125v203h84v-324zM512 285v-82h-369v-121h-84v223q0 41 30 71t73 30h350v-84h-350q-18 0 -19 -17v-20h369zM2435 166q45 0 68 37h-363v41
q0 68 48 115t114 47h297v-84h-297q-43 0 -66 -37h363v-41q0 -68 -48 -115t-116 -47h-295v84h295zM2081 406v-84h-236v-156h101v-84h-187v240h-143v84h465zM1483 702q-8 0 -13.5 -6t-5.5 -12q0 -18 19 -18h350v-84h-350q-18 0 -19 -19q0 -16 19 -16h350v-86h-350
q-43 0 -73 29.5t-30 67.5t19 67q-19 20 -19 60t30 69.5t73 29.5h350v-82h-350zM834 784h475v-112q0 -49 -33 -86t-82 -41l78 -84h-115l-78 84h-121v84h224q16 0 29.5 13t13.5 30v28h-307v-239h-84v323zM754 666v-84h-367v-121h-84v223q0 41 29.5 70.5t73.5 29.5h348v-82
h-348q-8 0 -13.5 -6t-5.5 -12v-18h367zM2005 702q-18 0 -18 -18t18 -18h350v-84h-350q-18 0 -18 -18t18 -17h350v-86h-350q-41 0 -71.5 29.5t-30.5 66.5t20 68q-20 25 -20 63t30.5 67t71.5 29h350v-82h-350zM2599 1436v-594h-174v418h-103v176h277z" />
    <glyph glyph-name="dieresis" unicode="&#xa8;" horiz-adv-x="458" 
d="M59 1094v137h138v-137h-138zM260 1094v137h137v-137h-137z" />
    <glyph glyph-name="copyright" unicode="&#xa9;" horiz-adv-x="1650" 
d="M1073 430q0 -86 -58.5 -145.5t-128.5 -59.5q-138 0 -223 50.5t-85 154.5v645q0 92 64.5 147.5t162.5 55.5h246v-96h-224q-59 0 -59 -82v-670q0 -53 26.5 -82t69.5 -29t78 30t35 81h96zM1473 753q0 132 -51.5 249.5t-139.5 205.5t-206 139.5t-250 51.5t-249.5 -51.5
t-205.5 -139.5t-140.5 -205.5t-52.5 -251t51.5 -250t140.5 -205.5t205.5 -140.5t249.5 -51.5t251 52.5t206 140.5t139.5 206t51.5 250zM1610 751.5q0 -159.5 -62.5 -302t-170 -249t-250 -169t-302 -62.5t-303 61.5t-250 168t-169 249t-62.5 303.5t62.5 304t169 249.5
t250 169t303 62.5t302 -62.5t250 -170t170 -250t62.5 -302z" />
    <glyph glyph-name="ordfeminine" unicode="&#xaa;" horiz-adv-x="649" 
d="M283 950q35 0 65.5 28t34.5 64l33 369h-119q-51 0 -57 -61l-27 -318l-2 -16q0 -66 72 -66zM303 1493h285l-43 -487q0 -27 9 -40.5t38 -15.5l-8 -82h-58q-86 0 -125 52q-51 -51 -127 -52h-24q-82 0 -142.5 42t-60.5 114l25 295q4 74 74 124t157 50z" />
    <glyph glyph-name="guillemotleft" unicode="&#xab;" horiz-adv-x="620" 
d="M199 510l-168 244l168 245h166l-168 -245l168 -244h-166zM403 510l-167 244l167 245h166l-168 -245l168 -244h-166z" />
    <glyph glyph-name="logicalnot" unicode="&#xac;" horiz-adv-x="1032" 
d="M799 414v223h-791v174h965v-397h-174z" />
    <glyph glyph-name="registered" unicode="&#xae;" horiz-adv-x="827" 
d="M465 1296q0 23 -25 23h-39v-141h39q25 0 25 30v88zM530 930q-68 0 -81 57l-48 137v-194h-77v389h-35v39h151q102 0 103 -82v-53q0 -59 -64 -78l47 -152q8 -25 33 -24v-39h-29zM609.5 1332.5q-84.5 82.5 -196.5 82.5t-195 -83t-83 -197.5t82 -196.5t195 -82t197.5 83
t84.5 197t-84.5 196.5zM786 1136.5q0 -75.5 -28.5 -143t-79.5 -119t-118.5 -81t-145.5 -29.5t-145.5 29.5t-118 80t-80 118t-29.5 145t29.5 145.5t81 119t119 79.5t143 28.5t143.5 -29.5t119 -80.5t80.5 -119t29.5 -143.5z" />
    <glyph glyph-name="macron" unicode="&#xaf;" horiz-adv-x="387" 
d="M59 1094v112h265v-112h-265z" />
    <glyph glyph-name="degree" unicode="&#xb0;" horiz-adv-x="399" 
d="M287 1349.5q0 34.5 -27 60.5t-61.5 26t-60 -26t-25.5 -60.5t25.5 -61t60 -26.5t61.5 26.5t27 61zM358 1349.5q0 -65.5 -47 -112.5t-112.5 -47t-111.5 47t-46 112.5t46 111.5t111.5 46t112.5 -46t47 -111.5z" />
    <glyph glyph-name="plusminus" unicode="&#xb1;" horiz-adv-x="1189" 
d="M682 293h-174v401h-485v174h485v406h174v-406h485v-174h-485v-401zM23 0v174h1144v-174h-1144z" />
    <glyph glyph-name="twosuperior" unicode="&#xb2;" horiz-adv-x="544" 
d="M504 1374q0 -100 -90 -196l-183 -193h218l-9 -82h-401l6 82l258 264q53 53 53 115q0 82 -75 82q-47 0 -75 -24.5t-32 -67.5l-2 -29h-82l2 29q6 86 68.5 130t148.5 44q195 0 195 -154z" />
    <glyph glyph-name="threesuperior" unicode="&#xb3;" horiz-adv-x="544" 
d="M465 1075v-16l-16 -199q-8 -71 -76.5 -123.5t-155.5 -52.5h-27q-70 0 -114.5 47t-44.5 115v14h82q0 -39 22.5 -66.5t63.5 -27.5q76 0 84 94l20 242q0 49 -45 49h-131l170 293h-197l6 82h406l-174 -301q127 -37 127 -150z" />
    <glyph glyph-name="acute" unicode="&#xb4;" horiz-adv-x="460" 
d="M76 1094l-60 123l373 174l57 -125z" />
    <glyph glyph-name="mu" unicode="&#xb5;" horiz-adv-x="1030" 
d="M840 0q-121 0 -193 57q-88 -57 -190 -57q-57 0 -107 12l-22 -266h-275l101 1157h-72l12 135h344l-61 -745q0 -70 30.5 -112t75.5 -42t92 29l76 870h273l-70 -829q0 -25 4 -38t24.5 -23.5t125.5 -10.5l-13 -137h-155z" />
    <glyph glyph-name="mu" unicode="&#x3bc;" horiz-adv-x="1030" 
d="M840 0q-121 0 -193 57q-88 -57 -190 -57q-57 0 -107 12l-22 -266h-275l101 1157h-72l12 135h344l-61 -745q0 -70 30.5 -112t75.5 -42t92 29l76 870h273l-70 -829q0 -25 4 -38t24.5 -23.5t125.5 -10.5l-13 -137h-155z" />
    <glyph glyph-name="paragraph" unicode="&#xb6;" horiz-adv-x="983" 
d="M836 1372v-1622h-136v1622h-71v-1622h-135v885h-37q-200 0 -320.5 122.5t-120.5 316t121 314.5t320 121h483v-137h-104z" />
    <glyph glyph-name="periodcentered" unicode="&#xb7;" horiz-adv-x="335" 
d="M293 615q0 -52 -37 -89t-89 -37t-89 37t-37 89t36 89t89 37t90 -37t37 -89z" />
    <glyph glyph-name="cedilla" unicode="&#xb8;" horiz-adv-x="456" 
d="M420 -270q0 -70 -52.5 -121t-129.5 -51h-209v135h209q45 0 45 45t-45 45h-154l115 270h149l-59 -139q59 -14 95 -64t36 -120z" />
    <glyph glyph-name="onesuperior" unicode="&#xb9;" horiz-adv-x="395" 
d="M338 909h-299l6 82h68l41 461h-70l8 82h234l-47 -543h67z" />
    <glyph glyph-name="ordmasculine" unicode="&#xba;" horiz-adv-x="575" 
d="M268 989q64 0 72 92l22 277v20q0 70 -55 70q-68 0 -74 -90l-22 -277l-2 -20q0 -72 59 -72zM301 1532h27q82 0 141 -45t59 -117v-12l-24 -277q-8 -73 -74.5 -123.5t-157.5 -50.5h-24q-84 0 -143.5 43t-59.5 113l27 295q4 73 72.5 123.5t156.5 50.5z" />
    <glyph glyph-name="guillemotright" unicode="&#xbb;" horiz-adv-x="575" 
d="M199 510l-168 244l168 245h166l-168 -245l168 -244h-166zM403 510l-167 244l167 245h166l-168 -245l168 -244h-166z" />
    <glyph glyph-name="onequarter" unicode="&#xbc;" horiz-adv-x="1138" 
d="M567 94h135l23 262zM983 2h-104l-23 -242h-182l20 242h-370l417 696h197l-51 -604h104zM457 809h-336l8 92h76l45 512h-78l8 92h260l-51 -604h76zM209 0h-189l898 1509h186z" />
    <glyph glyph-name="onehalf" unicode="&#xbd;" horiz-adv-x="1161" 
d="M927.5 702q157.5 0 157.5 -186q0 -100 -100 -205l-203 -213h240l-8 -92h-449l8 90l289 295q59 63 60 125q0 94 -82 94q-45 0 -80 -27.5t-41 -74.5l-4 -31h-90l2 31q6 92 74.5 143t226 51zM469 805h-336l8 92h76l45 512h-78l9 92h260l-52 -604h76zM225 0h-188l897 1509
h186z" />
    <glyph glyph-name="threequarters" unicode="&#xbe;" horiz-adv-x="1239" 
d="M639 96h135l23 262zM1055 4h-105l-22 -242h-183l21 242h-371l418 696h197l-52 -604h105zM506 991v-16l-21 -223q-8 -79 -83 -137t-173 -58h-30q-78 0 -128.5 52.5t-50.5 127.5v15h93v-11q0 -41 27.5 -67.5t66.5 -26.5q86 0 96 105l23 270q0 55 -52 55h-145l188 326h-219
l8 92h451l-192 -336q61 -16 101 -61t40 -107zM309 0h-188l897 1509h186z" />
    <glyph glyph-name="questiondown" unicode="&#xbf;" horiz-adv-x="827" 
d="M526 968.5q0 55.5 39 94.5t94.5 39t94.5 -39t39 -94.5t-39 -94t-94.5 -38.5t-94.5 38.5t-39 94zM10 -57q0 201 217 356q39 20 142 84q102 64 130.5 85t44.5 42.5t25 89.5l17 174h147l-24 -262q-12 -147 -71.5 -204.5t-134.5 -109.5t-117 -117t-42 -152t48 -139t126 -52
h199l-12 -146h-236q-196 0 -327.5 98t-131.5 253z" />
    <glyph glyph-name="Agrave" unicode="&#xc0;" 
d="M672 1249q0 53 -30 88t-84 35t-92 -41t-42 -100l-47 -533h248l47 533v18zM795 0q-100 0 -158 49q-57 49 -57 137q0 16 2 27l30 348h-247l-50 -561h-272l104 1192q12 145 134 232t288 86t271 -78q104 -77 104 -207l-88 -1024q0 -59 59 -64l-12 -137h-108zM717 1563
l-371 172l57 125l373 -174z" />
    <glyph glyph-name="Aacute" unicode="&#xc1;" 
d="M672 1249q0 53 -30 88t-84 35t-92 -41t-42 -100l-47 -533h248l47 533v18zM795 0q-100 0 -158 49q-57 49 -57 137q0 16 2 27l30 348h-247l-50 -561h-272l104 1192q12 145 134 232t288 86t271 -78q104 -77 104 -207l-88 -1024q0 -59 59 -64l-12 -137h-108zM469 1563
l-59 123l372 174l58 -125z" />
    <glyph glyph-name="Acircumflex" unicode="&#xc2;" 
d="M672 1249q0 53 -30 88t-84 35t-92 -41t-42 -100l-47 -533h248l47 533v18zM795 0q-100 0 -158 49q-57 49 -57 137q0 16 2 27l30 348h-247l-50 -561h-272l104 1192q12 145 134 232t288 86t271 -78q104 -77 104 -207l-88 -1024q0 -59 59 -64l-12 -137h-108zM786 1540
l-188 137l-190 -137l-80 111l270 196l268 -196z" />
    <glyph glyph-name="Atilde" unicode="&#xc3;" 
d="M672 1249q0 53 -30 88t-84 35t-92 -41t-42 -100l-47 -533h248l47 533v18zM795 0q-100 0 -158 49q-57 49 -57 137q0 16 2 27l30 348h-247l-50 -561h-272l104 1192q12 145 134 232t288 86t271 -78q104 -77 104 -207l-88 -1024q0 -59 59 -64l-12 -137h-108zM655 1575
q-51 0 -92 20l-43 21q-14 8 -35 8q-57 0 -82 -51l-122 57q59 127 202 127q47 0 95 -18l43 -19q16 -8 36 -8q55 0 78 49l125 -57q-59 -129 -205 -129z" />
    <glyph glyph-name="Adieresis" unicode="&#xc4;" 
d="M672 1249q0 53 -30 88t-84 35t-92 -41t-42 -100l-47 -533h248l47 533v18zM795 0q-100 0 -158 49q-57 49 -57 137q0 16 2 27l30 348h-247l-50 -561h-272l104 1192q12 145 134 232t288 86t271 -78q104 -77 104 -207l-88 -1024q0 -59 59 -64l-12 -137h-108zM406 1563v137
h137v-137h-137zM606 1563v137h137v-137h-137z" />
    <glyph glyph-name="Aring" unicode="&#xc5;" 
d="M672 1249q0 53 -30 88t-84 35t-92 -41t-42 -100l-47 -533h248l47 533v18zM795 0q-100 0 -158 49q-57 49 -57 137q0 16 2 27l30 348h-247l-50 -561h-272l104 1192q12 145 134 232t288 86t271 -78q104 -77 104 -207l-88 -1024q0 -59 59 -64l-12 -137h-108zM719 1765
q0 45 -33 78t-79 33t-79 -33q-32 -33 -32 -78t32 -77t79 -33q46 1 79 33t33 77zM803 1765q1 -82 -57 -139t-140 -57t-138 56q-58 57 -58 141t59 140t139 56t138 -58t57 -139z" />
    <glyph glyph-name="AE" unicode="&#xc6;" horiz-adv-x="1427" 
d="M554 1364q-50 0 -87 -53.5t-43 -126.5l-31 -369h238l33 371l2 28q0 72 -31 111t-81 39zM571 1509h826l-11 -137h-432l-49 -557h299l-12 -129h-297l-49 -549h432l-12 -137h-705l60 686h-240l-59 -686h-275l105 1184q12 145 130 235t289 90z" />
    <glyph glyph-name="Ccedilla" unicode="&#xc7;" horiz-adv-x="856" 
d="M502 1372q-37 0 -66 -34t-33 -87l-84 -960l-2 -27q0 -59 34 -94q33 -35 97 -35t115 44t58 112h137q-8 -113 -113 -199t-223 -92l-37 -86q59 -14 95 -64t36 -120t-52 -121t-130 -51h-209v135h209q45 0 45 45t-45 45h-154l97 229q-89 18 -143 63q-89 75 -89 191l82 951
q12 131 113 212q101 82 237 80h354l-12 -137h-317z" />
    <glyph glyph-name="Egrave" unicode="&#xc8;" horiz-adv-x="860" 
d="M444 135h277l-12 -135h-373q-120 0 -206 82q-85 83 -85 203v15q0 7 2 17l76 875q12 132 117 225q105 94 229 92h373l-13 -137h-276q-59 0 -104 -42t-50 -99l-34 -408h342l-11 -137h-344l-37 -410l-2 -14q0 -53 37 -90t94 -37zM696 1563l-370 172l57 125l373 -174z" />
    <glyph glyph-name="Eacute" unicode="&#xc9;" horiz-adv-x="860" 
d="M444 135h277l-12 -135h-373q-120 0 -206 82q-85 83 -85 203v15q0 7 2 17l76 875q12 132 117 225q105 94 229 92h373l-13 -137h-276q-59 0 -104 -42t-50 -99l-34 -408h342l-11 -137h-344l-37 -410l-2 -14q0 -53 37 -90t94 -37zM403 1563l-59 123l373 174l57 -125z" />
    <glyph glyph-name="Ecircumflex" unicode="&#xca;" horiz-adv-x="860" 
d="M444 135h277l-12 -135h-373q-120 0 -206 82q-85 83 -85 203v15q0 7 2 17l76 875q12 132 117 225q105 94 229 92h373l-13 -137h-276q-59 0 -104 -42t-50 -99l-34 -408h342l-11 -137h-344l-37 -410l-2 -14q0 -53 37 -90t94 -37zM741 1540l-188 137l-191 -137l-79 111
l270 196l268 -196z" />
    <glyph glyph-name="Edieresis" unicode="&#xcb;" horiz-adv-x="860" 
d="M444 135h277l-12 -135h-373q-120 0 -206 82q-85 83 -85 203v15q0 7 2 17l76 875q12 132 117 225q105 94 229 92h373l-13 -137h-276q-59 0 -104 -42t-50 -99l-34 -408h342l-11 -137h-344l-37 -410l-2 -14q0 -53 37 -90t94 -37zM412 1563v137h137v-137h-137zM612 1563v137
h138v-137h-138z" />
    <glyph glyph-name="Igrave" unicode="&#xcc;" horiz-adv-x="466" 
d="M305 0h-274l131 1509h274zM389 1563l-371 172l58 125l373 -174z" />
    <glyph glyph-name="Iacute" unicode="&#xcd;" horiz-adv-x="466" 
d="M305 0h-274l131 1509h274zM219 1563l-59 123l372 174l58 -125z" />
    <glyph glyph-name="Icircumflex" unicode="&#xce;" horiz-adv-x="466" 
d="M305 0h-274l131 1509h274zM502 1540l-189 137l-190 -137l-80 111l270 196l269 -196z" />
    <glyph glyph-name="Idieresis" unicode="&#xcf;" horiz-adv-x="466" 
d="M305 0h-274l131 1509h274zM137 1563v137h137v-137h-137zM338 1563v137h137v-137h-137z" />
    <glyph glyph-name="Eth" unicode="&#xd0;" horiz-adv-x="991" 
d="M670 1225q0 48 -38 97.5t-87 49.5h-86l-49 -557h118l-12 -129h-119l-47 -549h88q59 0 102.5 45t49.5 109l80 926v8zM662 1509q108 0 195 -79.5t87 -190.5v-22l-82 -926q-12 -129 -104 -210t-230 -81h-465l62 686h-76l10 129h76l49 557h-82l11 137h549z" />
    <glyph glyph-name="Ntilde" unicode="&#xd1;" horiz-adv-x="995" 
d="M795 0q-98 0 -157 50q-58 50 -58 136v14q0 7 2 13l86 973l2 28q0 70 -30 109t-77 39h-119l-118 -1362h-275l119 1372h-82l12 137h475q164 0 267 -79q102 -79 102 -209l-86 -1020q0 -59 60 -64l-13 -137h-110zM633 1575q-51 0 -92 20l-43 21q-14 8 -35 8q-57 0 -82 -51
l-123 57q59 127 203 127q47 0 94 -18l43 -19q16 -8 37 -8q55 0 78 49l125 -57q-59 -129 -205 -129z" />
    <glyph glyph-name="Ograve" unicode="&#xd2;" horiz-adv-x="997" 
d="M445 135q58 0 104 41q45 41 49 100l82 955v10q0 53 -37 92t-92 39t-101 -42t-51 -99l-84 -955l-2 -14q0 -53 37 -90t95 -37zM387 0q-145 0 -246 81q-96 81 -96 206q0 20 2 30l76 875q12 134 124 227q112 92 273 90h88q147 0 247 -81q99 -82 97 -205l-80 -906
q-12 -138 -123 -228q-111 -89 -272 -89h-90zM705 1563l-371 172l57 125l373 -174z" />
    <glyph glyph-name="Oacute" unicode="&#xd3;" horiz-adv-x="997" 
d="M445 135q58 0 104 41q45 41 49 100l82 955v10q0 53 -37 92t-92 39t-101 -42t-51 -99l-84 -955l-2 -14q0 -53 37 -90t95 -37zM387 0q-145 0 -246 81q-96 81 -96 206q0 20 2 30l76 875q12 134 124 227q112 92 273 90h88q147 0 247 -81q99 -82 97 -205l-80 -906
q-12 -138 -123 -228q-111 -89 -272 -89h-90zM446 1563l-59 123l373 174l57 -125z" />
    <glyph glyph-name="Ocircumflex" unicode="&#xd4;" horiz-adv-x="997" 
d="M445 135q58 0 104 41q45 41 49 100l82 955v10q0 53 -37 92t-92 39t-101 -42t-51 -99l-84 -955l-2 -14q0 -53 37 -90t95 -37zM387 0q-145 0 -246 81q-96 81 -96 206q0 20 2 30l76 875q12 134 124 227q112 92 273 90h88q147 0 247 -81q99 -82 97 -205l-80 -906
q-12 -138 -123 -228q-111 -89 -272 -89h-90zM770 1540l-188 137l-191 -137l-80 111l271 196l268 -196z" />
    <glyph glyph-name="Otilde" unicode="&#xd5;" horiz-adv-x="997" 
d="M445 135q58 0 104 41q45 41 49 100l82 955v10q0 53 -37 92t-92 39t-101 -42t-51 -99l-84 -955l-2 -14q0 -53 37 -90t95 -37zM387 0q-145 0 -246 81q-96 81 -96 206q0 20 2 30l76 875q12 134 124 227q112 92 273 90h88q147 0 247 -81q99 -82 97 -205l-80 -906
q-12 -138 -123 -228q-111 -89 -272 -89h-90zM651 1575q-51 0 -92 20l-43 21q-14 8 -35 8q-57 0 -82 -51l-123 57q59 127 203 127q47 0 94 -18l43 -19q16 -8 37 -8q55 0 78 49l125 -57q-59 -129 -205 -129z" />
    <glyph glyph-name="Odieresis" unicode="&#xd6;" horiz-adv-x="997" 
d="M445 135q58 0 104 41q45 41 49 100l82 955v10q0 53 -37 92t-92 39t-101 -42t-51 -99l-84 -955l-2 -14q0 -53 37 -90t95 -37zM387 0q-145 0 -246 81q-96 81 -96 206q0 20 2 30l76 875q12 134 124 227q112 92 273 90h88q147 0 247 -81q99 -82 97 -205l-80 -906
q-12 -138 -123 -228q-111 -89 -272 -89h-90zM403 1563v137h138v-137h-138zM604 1563v137h137v-137h-137z" />
    <glyph glyph-name="multiply" unicode="&#xd7;" horiz-adv-x="1161" 
d="M987 1100l123 -123l-408 -408l408 -407l-123 -123l-405 407l-408 -407l-123 123l406 407q-53 55 -79 81l-327 327l123 123l406 -408z" />
    <glyph glyph-name="Oslash" unicode="&#xd8;" horiz-adv-x="1038" 
d="M352 284v-20q0 -49 31 -90t82 -41t90 38t47 120l51 575l-299 -575q-2 -6 -2 -7zM686 1226v19q0 57 -32 93t-82 36t-91 -41t-47 -116l-49 -574l299 574q2 8 2 9zM414 0q-106 0 -197 47l-27 -47h-149l74 139q-37 51 -37 123q0 18 2 29l82 926q12 127 123.5 209.5
t261.5 82.5h76q109 0 198 -49l27 49h149l-75 -139q39 -61 39 -127l-84 -952q-12 -122 -123 -206.5t-262 -84.5h-78z" />
    <glyph glyph-name="Ugrave" unicode="&#xd9;" horiz-adv-x="1005" 
d="M844 209q0 -72 86 -72l-12 -137h-121q-111 0 -176 59q-109 -59 -244 -59t-231 74q-95 74 -95 194l94 1104h-73l12 135h346l-104 -1222q0 -137 112 -138q55 -1 94 49t43 111l103 1202h276l-110 -1280v-20zM657 1563l-370 172l57 125l373 -174z" />
    <glyph glyph-name="Uacute" unicode="&#xda;" horiz-adv-x="1005" 
d="M844 209q0 -72 86 -72l-12 -137h-121q-111 0 -176 59q-109 -59 -244 -59t-231 74q-95 74 -95 194l94 1104h-73l12 135h346l-104 -1222q0 -137 112 -138q55 -1 94 49t43 111l103 1202h276l-110 -1280v-20zM412 1563l-60 123l373 174l57 -125z" />
    <glyph glyph-name="Ucircumflex" unicode="&#xdb;" horiz-adv-x="1005" 
d="M844 209q0 -72 86 -72l-12 -137h-121q-111 0 -176 59q-109 -59 -244 -59t-231 74q-95 74 -95 194l94 1104h-73l12 135h346l-104 -1222q0 -137 112 -138q55 -1 94 49t43 111l103 1202h276l-110 -1280v-20zM766 1540l-188 137l-191 -137l-80 111l271 196l268 -196z" />
    <glyph glyph-name="Udieresis" unicode="&#xdc;" horiz-adv-x="1005" 
d="M844 209q0 -72 86 -72l-12 -137h-121q-111 0 -176 59q-109 -59 -244 -59t-231 74q-95 74 -95 194l94 1104h-73l12 135h346l-104 -1222q0 -137 112 -138q55 -1 94 49t43 111l103 1202h276l-110 -1280v-20zM393 1563v137h137v-137h-137zM594 1563v137h137v-137h-137z" />
    <glyph glyph-name="Yacute" unicode="&#xdd;" horiz-adv-x="972" 
d="M479 858q55 0 102 41q46 41 50 98l43 512h274l-43 -471q-10 -112 -89 -196t-208 -111l-63 -731h-273l64 729q-123 23 -191 97t-67 182q0 20 2 30l29 334h-76l12 137h348l-45 -522q0 -53 38 -91t93 -38zM410 1563l-60 123l373 174l57 -125z" />
    <glyph glyph-name="Thorn" unicode="&#xde;" horiz-adv-x="937" 
d="M426 1135l-57 -643q87 8 155 68.5t76 131.5l39 443h-213zM889 848q-20 -203 -175.5 -349.5t-357.5 -146.5l-30 -352h-275l121 1372h-80l12 137h355l-23 -237h490z" />
    <glyph glyph-name="germandbls" unicode="&#xdf;" horiz-adv-x="1361" 
d="M901 137q66 0 104.5 45t38.5 115t-51 113l-172 143q-80 63 -80 174t88 223l82 105q47 59 47 136t-37.5 129t-99 52t-106.5 -57.5t-53 -153.5l-115 -1317q-12 -141 -117.5 -217t-267.5 -76h-139l12 138h104q121 0 131 121l95 1093h-95l11 137h96l10 121q12 144 145.5 246
t302.5 102t273 -76.5t104 -222.5q0 -84 -45 -144t-155 -116q-56 -29 -56 -82t37 -86l242 -217q106 -94 106 -215t-72.5 -235.5t-367.5 -114.5h-233l12 137h221z" />
    <glyph glyph-name="agrave" unicode="&#xe0;" horiz-adv-x="1011" 
d="M438 137q63 0 113 45q49 45 55 109l53 612h-196q-86 0 -96 -102l-45 -527q0 -10 -3 -22q0 -115 119 -115zM846 0q-143 0 -209 84q-90 -84 -211 -84h-43q-140 0 -238 75t-98 189q0 16 2 27l39 459q12 125 126 208q114 84 259 82h473l-69 -811q0 -4 -3 -16q0 -72 80 -76
l-12 -137h-96zM727 1094l-371 172l58 125l372 -174z" />
    <glyph glyph-name="aacute" unicode="&#xe1;" horiz-adv-x="1011" 
d="M438 137q63 0 113 45q49 45 55 109l53 612h-196q-86 0 -96 -102l-45 -527q0 -10 -3 -22q0 -115 119 -115zM846 0q-143 0 -209 84q-90 -84 -211 -84h-43q-140 0 -238 75t-98 189q0 16 2 27l39 459q12 125 126 208q114 84 259 82h473l-69 -811q0 -4 -3 -16q0 -72 80 -76
l-12 -137h-96zM471 1094l-59 123l372 174l58 -125z" />
    <glyph glyph-name="acircumflex" unicode="&#xe2;" horiz-adv-x="1011" 
d="M438 137q63 0 113 45q49 45 55 109l53 612h-196q-86 0 -96 -102l-45 -527q0 -10 -3 -22q0 -115 119 -115zM846 0q-143 0 -209 84q-90 -84 -211 -84h-43q-140 0 -238 75t-98 189q0 16 2 27l39 459q12 125 126 208q114 84 259 82h473l-69 -811q0 -4 -3 -16q0 -72 80 -76
l-12 -137h-96zM764 1071l-189 137l-190 -137l-80 111l270 196l269 -196z" />
    <glyph glyph-name="atilde" unicode="&#xe3;" horiz-adv-x="1011" 
d="M438 137q63 0 113 45q49 45 55 109l53 612h-196q-86 0 -96 -102l-45 -527q0 -10 -3 -22q0 -115 119 -115zM846 0q-143 0 -209 84q-90 -84 -211 -84h-43q-140 0 -238 75t-98 189q0 16 2 27l39 459q12 125 126 208q114 84 259 82h473l-69 -811q0 -4 -3 -16q0 -72 80 -76
l-12 -137h-96zM655 1106q-51 0 -92 20l-43 21q-14 8 -35 8q-57 0 -82 -51l-122 57q59 127 202 127q47 0 95 -18l43 -19q16 -8 36 -8q55 0 78 49l125 -57q-59 -129 -205 -129z" />
    <glyph glyph-name="adieresis" unicode="&#xe4;" horiz-adv-x="1011" 
d="M438 137q63 0 113 45q49 45 55 109l53 612h-196q-86 0 -96 -102l-45 -527q0 -10 -3 -22q0 -115 119 -115zM846 0q-143 0 -209 84q-90 -84 -211 -84h-43q-140 0 -238 75t-98 189q0 16 2 27l39 459q12 125 126 208q114 84 259 82h473l-69 -811q0 -4 -3 -16q0 -72 80 -76
l-12 -137h-96zM389 1094v137h137v-137h-137zM590 1094v137h137v-137h-137z" />
    <glyph glyph-name="aring" unicode="&#xe5;" horiz-adv-x="1011" 
d="M438 137q63 0 113 45q49 45 55 109l53 612h-196q-86 0 -96 -102l-45 -527q0 -10 -3 -22q0 -115 119 -115zM846 0q-143 0 -209 84q-90 -84 -211 -84h-43q-140 0 -238 75t-98 189q0 16 2 27l39 459q12 125 126 208q114 84 259 82h473l-69 -811q0 -4 -3 -16q0 -72 80 -76
l-12 -137h-96zM713 1296q0 45 -33 78t-79 33t-79 -33t-33 -78q0 -46 33 -78t79 -32t79 32t33 78zM797 1296q1 -82 -57 -139t-140 -57t-138 56q-57 56 -58 139q-1 84 58 141t140 57q80 1 138 -57t57 -140z" />
    <glyph glyph-name="ae" unicode="&#xe6;" horiz-adv-x="1380" 
d="M465 449q-66 0 -109 -56t-43 -127q0 -129 115 -129q63 0 112.5 45t55.5 109l14 158h-145zM641 770q0 133 -113 133q-66 0 -116 -45t-54 -108h-137q8 114 102.5 202t213.5 88h43q121 0 217 -59q109 59 272 59q109 0 187.5 -78.5t78.5 -183.5q0 -18 -2 -28h-135v12
q0 59 -41 100t-102 41q-129 0 -142 -153l-12 -162h354l-12 -135h-354q-15 -161 -15 -185q0 -133 119 -133q63 0 110.5 45t53.5 111h137q-8 -114 -103 -202.5t-214 -88.5h-43q-193 0 -287 123q-102 -123 -261 -123t-253 81.5t-94 205.5q0 123 120 211t267 88h201
q14 154 14 184z" />
    <glyph glyph-name="ccedilla" unicode="&#xe7;" horiz-adv-x="798" 
d="M459 903q-39 0 -66 -38t-31 -81l-47 -538q0 -45 35 -77t91 -32t106 45q49 45 55 109h137q-8 -114 -97 -198q-89 -83 -195 -92l-37 -87q59 -14 95 -64t36 -120q-1 -70 -53 -121t-130 -51h-208v135h208q45 0 45 45t-45 45h-153l95 224q-168 31 -229 151q-26 49 -26 110
l41 482q12 124 124 208t261 82h291l-12 -137h-291z" />
    <glyph glyph-name="egrave" unicode="&#xe8;" horiz-adv-x="813" 
d="M637 750v14q0 59 -42 99t-87 40q-114 0 -152 -115q-10 -33 -10 -69q0 -131 96 -131h254l-12 -135h-252q-55 -1 -89 -53t-34 -115t31 -107t90 -43q59 0 110 42q50 42 56 114h137q-12 -133 -110 -212t-240 -79t-242 80t-100 190q0 158 141 250q-102 96 -102 218t118 213
t263 90t230 -71t85 -188l-2 -32h-137zM610 1094l-370 172l57 125l373 -174z" />
    <glyph glyph-name="eacute" unicode="&#xe9;" horiz-adv-x="813" 
d="M637 750v14q0 59 -42 99t-87 40q-114 0 -152 -115q-10 -33 -10 -69q0 -131 96 -131h254l-12 -135h-252q-55 -1 -89 -53t-34 -115t31 -107t90 -43q59 0 110 42q50 42 56 114h137q-12 -133 -110 -212t-240 -79t-242 80t-100 190q0 158 141 250q-102 96 -102 218t118 213
t263 90t230 -71t85 -188l-2 -32h-137zM379 1094l-60 123l373 174l58 -125z" />
    <glyph glyph-name="ecircumflex" unicode="&#xea;" horiz-adv-x="813" 
d="M637 750v14q0 59 -42 99t-87 40q-114 0 -152 -115q-10 -33 -10 -69q0 -131 96 -131h254l-12 -135h-252q-55 -1 -89 -53t-34 -115t31 -107t90 -43q59 0 110 42q50 42 56 114h137q-12 -133 -110 -212t-240 -79t-242 80t-100 190q0 158 141 250q-102 96 -102 218t118 213
t263 90t230 -71t85 -188l-2 -32h-137zM668 1071l-189 137l-190 -137l-80 111l270 196l269 -196z" />
    <glyph glyph-name="edieresis" unicode="&#xeb;" horiz-adv-x="813" 
d="M637 750v14q0 59 -42 99t-87 40q-114 0 -152 -115q-10 -33 -10 -69q0 -131 96 -131h254l-12 -135h-252q-55 -1 -89 -53t-34 -115t31 -107t90 -43q59 0 110 42q50 42 56 114h137q-12 -133 -110 -212t-240 -79t-242 80t-100 190q0 158 141 250q-102 96 -102 218t118 213
t263 90t230 -71t85 -188l-2 -32h-137zM307 1094v137h137v-137h-137zM508 1094v137h137v-137h-137z" />
    <glyph glyph-name="igrave" unicode="&#xec;" horiz-adv-x="468" 
d="M365 0q-141 0 -224 61q-82 61 -82 170q0 16 2 25l58 647h-78l12 137h350l-67 -784l-2 -18q0 -88 84 -101l-12 -137h-41zM389 1094l-371 172l58 125l373 -174z" />
    <glyph glyph-name="iacute" unicode="&#xed;" horiz-adv-x="468" 
d="M365 0q-141 0 -224 61q-82 61 -82 170q0 16 2 25l58 647h-78l12 137h350l-67 -784l-2 -18q0 -88 84 -101l-12 -137h-41zM115 1094l-60 123l373 174l57 -125z" />
    <glyph glyph-name="icircumflex" unicode="&#xee;" horiz-adv-x="468" 
d="M365 0q-141 0 -224 61q-82 61 -82 170q0 16 2 25l58 647h-78l12 137h350l-67 -784l-2 -18q0 -88 84 -101l-12 -137h-41zM426 1071l-188 137l-191 -137l-80 111l271 196l268 -196z" />
    <glyph glyph-name="idieresis" unicode="&#xef;" horiz-adv-x="468" 
d="M365 0q-141 0 -224 61q-82 61 -82 170q0 16 2 25l58 647h-78l12 137h350l-67 -784l-2 -18q0 -88 84 -101l-12 -137h-41zM84 1094v137h137v-137h-137zM285 1094v137h137v-137h-137z" />
    <glyph glyph-name="eth" unicode="&#xf0;" horiz-adv-x="999" 
d="M402 139q42 0 78 40t42 112l39 459v22q0 61 -26.5 96t-68.5 35t-77 -41t-41 -112l-41 -459l-2 -27q0 -59 27.5 -92t69.5 -33zM459 1040h43q51 0 86 -8l14 164l-137 -76l-59 119l167 92q-35 41 -61 41h-137l12 137h156q133 0 229 -67l135 74l60 -117l-109 -62
q18 -55 19 -106v-14l-80 -926q-10 -111 -99 -187q-109 -104 -288 -104h-41q-142 0 -240 74.5t-98 189.5l43 486q12 127 123.5 208.5t261.5 81.5z" />
    <glyph glyph-name="ntilde" unicode="&#xf1;" horiz-adv-x="974" 
d="M850 207q0 -41 11 -55t67 -15l-13 -137h-116q-104 0 -166 50q-61 50 -62 136l52 600q0 51 -30 84t-71 33h-110l-80 -903h-275l80 903h-78l13 137h463q170 0 265 -68t95 -198l-45 -549v-18zM610 1106q-51 0 -92 20l-43 21q-14 8 -35 8q-57 0 -82 -51l-122 57
q59 127 202 127q47 0 94 -18l43 -19q16 -8 37 -8q55 0 78 49l125 -57q-59 -129 -205 -129z" />
    <glyph glyph-name="ograve" unicode="&#xf2;" horiz-adv-x="899" 
d="M419 137q42 0 78 38t42 116l39 459v22q0 63 -27 96t-72 33t-78 -43t-39 -108l-40 -482q0 -59 28 -95t69 -36zM426 0h-41q-142 0 -240 75t-98 189q0 16 2 27l41 459q12 124 124 208t261 82h43q140 0 237 -75t97 -189v-26l-41 -459q-12 -120 -123 -206q-112 -85 -262 -85z
M629 1094l-371 172l57 125l373 -174z" />
    <glyph glyph-name="oacute" unicode="&#xf3;" horiz-adv-x="899" 
d="M419 137q42 0 78 38t42 116l39 459v22q0 63 -27 96t-72 33t-78 -43t-39 -108l-40 -482q0 -59 28 -95t69 -36zM426 0h-41q-142 0 -240 75t-98 189q0 16 2 27l41 459q12 124 124 208t261 82h43q140 0 237 -75t97 -189v-26l-41 -459q-12 -120 -123 -206q-112 -85 -262 -85z
M377 1094l-60 123l373 174l58 -125z" />
    <glyph glyph-name="ocircumflex" unicode="&#xf4;" horiz-adv-x="899" 
d="M419 137q42 0 78 38t42 116l39 459v22q0 63 -27 96t-72 33t-78 -43t-39 -108l-40 -482q0 -59 28 -95t69 -36zM426 0h-41q-142 0 -240 75t-98 189q0 16 2 27l41 459q12 124 124 208t261 82h43q140 0 237 -75t97 -189v-26l-41 -459q-12 -120 -123 -206q-112 -85 -262 -85z
M711 1071l-189 137l-190 -137l-80 111l270 196l269 -196z" />
    <glyph glyph-name="otilde" unicode="&#xf5;" horiz-adv-x="899" 
d="M419 137q42 0 78 38t42 116l39 459v22q0 63 -27 96t-72 33t-78 -43t-39 -108l-40 -482q0 -59 28 -95t69 -36zM426 0h-41q-142 0 -240 75t-98 189q0 16 2 27l41 459q12 124 124 208t261 82h43q140 0 237 -75t97 -189v-26l-41 -459q-12 -120 -123 -206q-112 -85 -262 -85z
M598 1106q-51 0 -92 20l-43 21q-14 8 -35 8q-57 0 -82 -51l-123 57q59 127 203 127q47 0 94 -18l43 -19q16 -8 37 -8q55 0 78 49l125 -57q-59 -129 -205 -129z" />
    <glyph glyph-name="odieresis" unicode="&#xf6;" horiz-adv-x="899" 
d="M419 137q42 0 78 38t42 116l39 459v22q0 63 -27 96t-72 33t-78 -43t-39 -108l-40 -482q0 -59 28 -95t69 -36zM426 0h-41q-142 0 -240 75t-98 189q0 16 2 27l41 459q12 124 124 208t261 82h43q140 0 237 -75t97 -189v-26l-41 -459q-12 -120 -123 -206q-112 -85 -262 -85z
M332 1094v137h137v-137h-137zM532 1094v137h138v-137h-138z" />
    <glyph glyph-name="divide" unicode="&#xf7;" horiz-adv-x="1165" 
d="M715 207q0 -55 -39 -94t-93 -39t-94 39t-40 94t39.5 94t93.5 39t93.5 -39t39.5 -94zM10 481v174h1145v-174h-1145zM715 933q0 -54 -39 -93t-93 -39t-94 39t-40 93t39.5 94t93.5 40t93.5 -40t39.5 -94z" />
    <glyph glyph-name="oslash" unicode="&#xf8;" horiz-adv-x="972" 
d="M362 229q21 -92 91 -92q43 0 77.5 39t42.5 115l25 272zM520 901q-49 0 -81.5 -43t-39.5 -108l-24 -273l235 334q-16 90 -90 90zM420 0q-102 0 -189 43l-30 -43h-160l88 127q-45 57 -45 135q0 18 2 29l39 459q12 126 124.5 208t260.5 82h43q104 0 188 -43l31 43h160
l-88 -127q45 -61 45 -135l-41 -487q-12 -116 -125.5 -203.5t-259.5 -87.5h-43z" />
    <glyph glyph-name="ugrave" unicode="&#xf9;" horiz-adv-x="952" 
d="M393 0q-147 0 -236 73t-89 203v20q0 10 2 19l51 588h-72l12 137h345l-64 -759v-17q0 -53 26 -90t72 -37h99l79 903h275l-78 -903h80l-12 -137h-490zM631 1094l-371 172l57 125l373 -174z" />
    <glyph glyph-name="uacute" unicode="&#xfa;" horiz-adv-x="952" 
d="M393 0q-147 0 -236 73t-89 203v20q0 10 2 19l51 588h-72l12 137h345l-64 -759v-17q0 -53 26 -90t72 -37h99l79 903h275l-78 -903h80l-12 -137h-490zM379 1094l-60 123l373 174l58 -125z" />
    <glyph glyph-name="ucircumflex" unicode="&#xfb;" horiz-adv-x="952" 
d="M393 0q-147 0 -236 73t-89 203v20q0 10 2 19l51 588h-72l12 137h345l-64 -759v-17q0 -53 26 -90t72 -37h99l79 903h275l-78 -903h80l-12 -137h-490zM723 1071l-188 137l-191 -137l-80 111l271 196l268 -196z" />
    <glyph glyph-name="udieresis" unicode="&#xfc;" horiz-adv-x="952" 
d="M393 0q-147 0 -236 73t-89 203v20q0 10 2 19l51 588h-72l12 137h345l-64 -759v-17q0 -53 26 -90t72 -37h99l79 903h275l-78 -903h80l-12 -137h-490zM377 1094v137h137v-137h-137zM578 1094v137h137v-137h-137z" />
    <glyph glyph-name="yacute" unicode="&#xfd;" horiz-adv-x="919" 
d="M387 -449h-276l12 138h260q102 0 113 121l16 190h-90q-160 0 -261 78q-100 78 -100 207q0 20 2 30l52 588h-74l12 137h348l-67 -776v-18q0 -109 100 -109h90l80 903h275l-105 -1196q-12 -120 -127 -206q-115 -87 -260 -87zM377 1094l-60 123l373 174l58 -125z" />
    <glyph glyph-name="thorn" unicode="&#xfe;" horiz-adv-x="948" 
d="M477 137q43 0 79 41t42 113l53 614h-215l-65 -768h106zM485 0h-127l-39 -449h-274l160 1821h-82l12 137h354l-40 -469h489l-66 -749q-12 -126 -123 -208.5t-264 -82.5z" />
    <glyph glyph-name="ydieresis" unicode="&#xff;" horiz-adv-x="919" 
d="M387 -449h-276l12 138h260q102 0 113 121l16 190h-90q-160 0 -261 78q-100 78 -100 207q0 20 2 30l52 588h-74l12 137h348l-67 -776v-18q0 -109 100 -109h90l80 903h275l-105 -1196q-12 -120 -127 -206q-115 -87 -260 -87zM348 1094v137h137v-137h-137zM549 1094v137h137
v-137h-137z" />
    <glyph glyph-name="dotlessi" unicode="&#x131;" horiz-adv-x="468" 
d="M365 0q-141 0 -223.5 61.5t-82.5 169.5q0 16 2 25l58 647h-78l12 137h350l-67 -784l-2 -18q0 -88 84 -101l-12 -137h-41z" />
    <glyph glyph-name="Lslash" unicode="&#x141;" horiz-adv-x="772" 
d="M317 0q-96 0 -154.5 47t-58.5 143l37 431l-106 -56l14 162l107 55l51 590h-76l10 137h351l-50 -575l107 55l-12 -162l-109 -55l-49 -571q0 -63 70 -64h309l-13 -137h-428z" />
    <glyph glyph-name="lslash" unicode="&#x142;" horiz-adv-x="534" 
d="M377 0q-141 0 -223 61.5t-82 169.5q0 16 2 25l32 371l-73 -39l14 162l74 38l51 584h-72l11 137h346l-49 -571l96 49l-15 -162l-96 -49l-45 -520l-2 -18q0 -90 88 -101l-12 -137h-45z" />
    <glyph glyph-name="OE" unicode="&#x152;" horiz-adv-x="1415" 
d="M438 133q49 0 90 37t47 115l82 938v18q0 57 -29.5 95t-83.5 38t-92 -43t-44 -114l-82 -926l-2 -19q0 -59 32.5 -99t81.5 -40zM387 0q-141 0 -238.5 75t-97.5 189q0 16 2 27l80 926q12 128 123 210t262 82h868l-10 -137h-432l-49 -549h299l-12 -137h-297l-49 -549h432
l-13 -137h-868z" />
    <glyph glyph-name="oe" unicode="&#x153;" horiz-adv-x="1320" 
d="M422 137q41 0 78 38t43 116l41 459v22q0 57 -27 93t-73 36t-77.5 -43t-37.5 -108l-43 -482q0 -59 27.5 -95t68.5 -36zM479 1040h43q121 0 217 -59q106 59 230 59h41q101 0 183.5 -81t82.5 -185v-24h-137v12q0 61 -42.5 101t-100.5 40t-96 -41t-44 -112l-14 -162h356
l-12 -135h-357l-12 -162l-2 -21q0 -66 33 -100.5t88 -34.5t106.5 42t57.5 114h137q-12 -117 -106.5 -204t-210.5 -87h-43q-127 0 -220 61q-104 -61 -227 -61h-41q-144 0 -241 75t-97 189l43 486q12 119 120.5 204.5t264.5 85.5z" />
    <glyph glyph-name="Scaron" unicode="&#x160;" horiz-adv-x="778" 
d="M561 1372q-175 0 -211 -102q-10 -29 -10 -60q0 -80 61 -159l252 -328q92 -121 92 -277q0 -196 -142 -321t-372 -125h-202l14 137h176q123 1 188 57t64 144q0 88 -68 184l-282 391q-59 85 -59 179t33 168q69 151 242 217q85 33 187 32h181l-13 -137h-131zM596 1571h-193
l-149 250h160l86 -146l86 146h159z" />
    <glyph glyph-name="scaron" unicode="&#x161;" horiz-adv-x="763" 
d="M266 137q127 0 127 121q0 68 -45 119l-164 186q-80 88 -80 206t100 194q100 77 251 77h225l-12 -137h-162q-102 0 -103 -61q0 -33 27 -66l201 -248q92 -114 92 -237t-102 -207t-261 -84h-325l12 137h219zM559 1102h-192l-150 250h160l86 -146l86 146h160z" />
    <glyph glyph-name="Ydieresis" unicode="&#x178;" horiz-adv-x="972" 
d="M479 858q55 0 102 41q46 41 50 98l43 512h274l-43 -471q-10 -112 -89 -196t-208 -111l-63 -731h-273l64 729q-123 23 -191 97t-67 182q0 20 2 30l29 334h-76l12 137h348l-45 -522q0 -53 38 -91t93 -38zM373 1563v137h137v-137h-137zM573 1563v137h138v-137h-138z" />
    <glyph glyph-name="Zcaron" unicode="&#x17d;" horiz-adv-x="1058" 
d="M383 137h537l-13 -137h-884l645 1372h-414l12 135h764zM737 1571h-192l-150 250h160l86 -146l86 146h160z" />
    <glyph glyph-name="zcaron" unicode="&#x17e;" horiz-adv-x="1079" 
d="M463 137h469l-12 -137h-883l579 903h-464l12 137h878zM696 1102h-192l-150 250h160l86 -146l86 146h160z" />
    <glyph glyph-name="florin" unicode="&#x192;" horiz-adv-x="1671" 
d="M494 379q0 23 20.5 22.5t20.5 -22.5q0 -116 89.5 -193t210 -77t210.5 77.5t90 192.5q0 23 22 22q6 0 12.5 -6t6.5 -16q0 -141 -117 -232q102 12 178 86.5t76 172.5t-58 167q-6 8 -6 15q0 20 21 20q6 0 16 -10q68 -80 68 -195t-101 -208q94 20 163 89.5t69 165.5t-51 162
q-4 4 -4 13q0 20 18 20q8 0 18 -10q59 -76 60 -176q0 -45 -13 -88q74 87 74 167q0 79 -31.5 133t-78.5 97q-2 4 -4.5 7t-2.5 6t15 30q43 77 43 178q0 100 -54.5 190.5t-148.5 158.5q-204 148 -492 149q-288 0 -489 -150q-201 -145 -201 -352q0 -102 54 -192v-9q0 -12 -4 -16
q-109 -100 -109 -207t74 -190q-15 58 -15 88q0 98 62 176q6 10 16 10q20 0 21 -20q0 -6 -6 -13q-52 -70 -52 -137q-1 -117 67 -188t167 -92q-101 88 -101 206q0 117 68 197q6 10 16 10q18 0 19 -20q0 -2 -4 -15q-60 -72 -60 -142q0 -124 76 -196.5t178 -87.5
q-116 90 -116 232zM1628 551q0 -92 -54 -166t-126 -125q-104 -113 -262 -113q-78 -45 -174 -45h-23q-71 -34 -153 -34t-156 34h-23q-96 0 -174 45q-74 0 -143.5 30t-118.5 83q-72 51 -125 125t-53 166q0 126 111 235q-52 96 -52 205t58.5 207t158.5 171q215 157 514 157
t517 -156q217 -161 217 -385q0 -102 -51 -199q112 -107 112 -235zM1237 932q0 100 -61.5 149t-135.5 63t-128 37t-85 74q-47 -77 -147 -104q-104 -23 -175 -73t-71 -146l4 -62q0 -20 -18 -20q-27 0 -27 82q0 141 101 246q-88 52 -107 141q-1 20 19 20t20 -18
q16 -66 73 -100.5t119 -34.5t116 31.5t73 91.5q4 12 20.5 12t18.5 -12q20 -59 74.5 -91t115.5 -32t118.5 34.5t72.5 100.5q4 18 21.5 18t17.5 -26q-15 -79 -95 -129q105 -109 105 -252q0 -82 -25 -82q-20 0 -20 27q6 42 6 55zM834 545q-89 0 -138 43q-61 -49 -141 -49
q-23 0 -43 4q20 -47 65.5 -70.5t90.5 -23.5q104 0 149 75q6 10 18.5 10.5t26.5 -23.5t55 -43t85 -19t90.5 23.5t64.5 70.5q-20 -4 -41 -4q-82 0 -143 49q-50 -43 -139 -43zM688 850q-47 0 -78 -20q-30 -20 -30 -47q0 -26 28 -45t79 -19q50 0 77 20q29 16 29 44t-29 44
q-29 23 -76 23zM985 850q-47 0 -78 -20t-31 -47q0 -26 30 -45q28 -19 78 -19t77 20q29 16 29 44t-29 44q-29 23 -76 23zM1032 641q0 -61 74 -61q46 0 60 5t18 5q20 0 18 -29q-4 -60 -65 -108q-65 -45 -138 -45q-106 0 -163 71q-63 -71 -152 -71t-152 45q-57 45 -67 114
q0 23 20 23q4 0 19 -5q16 -5 62 -5q76 0 75 61q0 38 -61 83.5t-154 45.5q-43 0 -73.5 -24t-30.5 -54t9 -42t9 -19q0 -19 -16 -19t-23 9q-20 31 -20 59q0 68 51 99.5t114 31.5t109 -16q6 43 48.5 62.5t68.5 19.5t51 -5q-2 10 -2 12v25q0 55 10 89q9 34 23 34q22 0 32 -86
l-36 -45h38q0 -33 -6 -53q37 -25 37 -62t-18.5 -54t-41 -27.5t-42 -22.5t-19.5 -30t14.5 -31t35 -20t44 -11t56 -4t78 15.5t45.5 51.5q0 26 -60 52q-23 10 -41 26.5t-18 54.5t35 62q-4 12 -4 16v45q0 123 29 123t31.5 -35.5t4.5 -50.5l-37 -45h39v-10q0 -10 -2 -19
q20 5 48 5t71 -19.5t49 -62.5q40 16 106 16t116.5 -31.5t50.5 -99.5q0 -26 -19 -59q-8 -9 -23 -9t-16 19q0 8 8 19q9 11 9 41t-31 54.5t-78 24.5q-87 0 -147 -43t-60 -86z" />
    <glyph glyph-name="circumflex" unicode="&#x2c6;" horiz-adv-x="595" 
d="M487 1071l-188 137l-190 -137l-80 111l270 196l268 -196z" />
    <glyph glyph-name="caron" unicode="&#x2c7;" horiz-adv-x="555" 
d="M375 1102h-193l-149 250h160l86 -146l86 146h159z" />
    <glyph glyph-name="breve" unicode="&#x2d8;" horiz-adv-x="522" 
d="M483 1323q0 -94 -66 -158.5t-156.5 -64.5t-156 65.5t-65.5 157.5h137q0 -35 24.5 -60.5t59.5 -25.5t60.5 25.5t25.5 60.5h137z" />
    <glyph glyph-name="dotaccent" unicode="&#x2d9;" horiz-adv-x="233" 
d="M190 1167.5q0 -30.5 -21.5 -52t-52 -21.5t-52 21.5t-21.5 52t21.5 52t52 21.5t52 -21.5t21.5 -52z" />
    <glyph glyph-name="ring" unicode="&#x2da;" horiz-adv-x="475" 
d="M350 1296q0 45 -32.5 78t-78.5 33t-79 -33t-33 -78t33 -77.5t79 -32.5t78.5 32.5t32.5 77.5zM434 1296q0 -82 -57.5 -139t-138.5 -57t-139 57t-58 139.5t59 139.5t140 57q80 0 137 -57.5t57 -139.5z" />
    <glyph glyph-name="ogonek" unicode="&#x2db;" horiz-adv-x="370" 
d="M254 -94q-29 0 -53.5 -25.5t-24.5 -70.5t47 -68l-57 -123q-127 61 -127 201q0 104 66 163.5t157 59.5q45 0 94 -23l-59 -122q-14 8 -43 8z" />
    <glyph glyph-name="tilde" unicode="&#x2dc;" horiz-adv-x="661" 
d="M416 1106q-51 0 -92 20l-43 21q-14 8 -35 8q-57 0 -82 -51l-123 57q59 127 203 127q47 0 94 -18l43 -19q16 -8 37 -8q55 0 78 49l125 -57q-59 -129 -205 -129z" />
    <glyph glyph-name="hungarumlaut" unicode="&#x2dd;" horiz-adv-x="499" 
d="M182 1100h-137l74 233h137zM383 1100h-137l73 233h138z" />
    <glyph glyph-name="endash" unicode="&#x2013;" horiz-adv-x="1089" 
d="M1014 655h-957l19 205h956z" />
    <glyph glyph-name="emdash" unicode="&#x2014;" horiz-adv-x="2097" 
d="M2019 655h-1960l19 205h1960z" />
    <glyph glyph-name="quoteleft" unicode="&#x2018;" horiz-adv-x="342" 
d="M25 1167q0 252 266 367v-82q-124 -86 -144 -192q8 2 21 2q53 0 88 -39t35 -91t-39.5 -88t-97.5 -36t-93.5 42.5t-35.5 116.5z" />
    <glyph glyph-name="quoteright" unicode="&#x2019;" horiz-adv-x="342" 
d="M317 1374q0 -136 -74.5 -226t-191.5 -140v82q124 86 144 192q-8 -2 -21 -2q-53 0 -88 39t-35 91t39.5 88t97.5 36t93.5 -43t35.5 -117z" />
    <glyph glyph-name="quotesinglbase" unicode="&#x201a;" horiz-adv-x="339" 
d="M315 94q0 -136 -74.5 -226t-191.5 -140v82q124 86 144 192q-8 -2 -21 -2q-53 0 -88 39t-35 91t39.5 88t97.5 36t93.5 -43t35.5 -117z" />
    <glyph glyph-name="quotedblleft" unicode="&#x201c;" horiz-adv-x="659" 
d="M41 1167q0 252 266 367v-82q-124 -87 -143 -192q8 2 20 2q53 0 88 -39t35 -91t-39.5 -88t-97.5 -36t-93.5 42.5t-35.5 116.5zM338 1167q0 252 266 367v-82q-124 -87 -143 -192q8 2 20 2q53 0 88 -39t35 -91t-39 -88t-97 -36t-94 42.5t-36 116.5z" />
    <glyph glyph-name="quotedblright" unicode="&#x201d;" horiz-adv-x="659" 
d="M618 1374q0 -136 -74.5 -226t-191.5 -140v82q124 86 144 192q-8 -2 -21 -2q-53 0 -88 39t-35 91t39 88t97 36t94 -43t36 -117zM322 1374q0 -135 -75 -225.5t-192 -140.5v82q124 86 144 192q-8 -2 -21 -2q-53 0 -88 39t-35 91t39.5 88t97.5 36t94 -43t36 -117z" />
    <glyph glyph-name="quotedblbase" unicode="&#x201e;" horiz-adv-x="659" 
d="M618 94q0 -136 -74.5 -226t-191.5 -140v82q124 86 144 192q-8 -2 -21 -2q-53 0 -88 39t-35 91t39 88t97 36t94 -43t36 -117zM322 94q0 -135 -75 -225.5t-192 -140.5v82q124 86 144 192q-8 -2 -21 -2q-53 0 -88 39t-35 91t39.5 88t97.5 36t94 -43t36 -117z" />
    <glyph glyph-name="dagger" unicode="&#x2020;" horiz-adv-x="649" 
d="M461 971v-1131l-137 -172l-136 172v1131h-172v137h172v227l136 174l137 -174v-227h172v-137h-172z" />
    <glyph glyph-name="daggerdbl" unicode="&#x2021;" horiz-adv-x="653" 
d="M463 70v-230l-137 -172l-136 172v230h-172v137h172v764h-172v137h172v227l136 174l137 -174v-227h172v-137h-172v-764h172v-137h-172z" />
    <glyph glyph-name="bullet" unicode="&#x2022;" horiz-adv-x="483" 
d="M385 944q57 -57 57 -141t-60 -142.5t-141 -58.5t-140.5 59.5t-59.5 139.5t58.5 140t143.5 60t142 -57z" />
    <glyph glyph-name="ellipsis" unicode="&#x2026;" horiz-adv-x="931" 
d="M879 118q0 -52 -37 -89t-89 -37t-89 37t-37 89t35.5 89t89 37t90.5 -37t37 -89zM592 118q0 -52 -37 -89t-89 -37t-89 37t-37 89t36 89t89 37t90 -37t37 -89zM305 118q0 -52 -37 -89t-89 -37t-89 37t-37 89t36 89t89 37t90 -37t37 -89z" />
    <glyph glyph-name="perthousand" unicode="&#x2030;" horiz-adv-x="2699" 
d="M2233 135q42 0 78 39t42 117l41 457v22q0 61 -26.5 96t-68.5 35t-78 -41t-42 -112l-43 -480q0 -61 27.5 -97t69.5 -36zM2290 1038h43q138 0 237 -74t99 -190v-26l-41 -457q-12 -119 -126.5 -206t-258.5 -87h-43q-139 0 -237.5 74t-98.5 192l41 484q12 128 125 209t260 81
zM415 604q42 0 76.5 39t43.5 117l40 457v22q0 61 -26.5 96t-68.5 35t-77.5 -41t-42.5 -112l-43 -480q0 -61 28 -97t70 -36zM1414 135q42 0 78 39t42 117l41 457v22q0 61 -26.5 96t-68.5 35t-78 -41t-42 -112l-43 -480q0 -61 27.5 -97t69.5 -36zM424 469h-43
q-143 0 -239.5 75t-96.5 189q0 16 2 27l39 457q12 128 123 210t262 82h43q144 0 239 -75t95 -191v-26l-39 -457q-8 -116 -124 -203.5t-261 -87.5zM657 0h-147l729 1509h147zM1470 1038h43q139 0 237.5 -74t98.5 -190v-26l-41 -457q-12 -120 -126 -206.5t-259 -86.5h-43
q-138 0 -237 74t-99 192l41 484q12 127 125.5 208.5t259.5 81.5z" />
    <glyph glyph-name="guilsinglleft" unicode="&#x2039;" horiz-adv-x="397" 
d="M186 510l-168 244l168 245h166l-168 -245l168 -244h-166z" />
    <glyph glyph-name="guilsinglright" unicode="&#x203a;" horiz-adv-x="397" 
d="M211 997l168 -243l-168 -246h-166l168 246l-168 243h166z" />
    <glyph glyph-name="Euro" unicode="&#x20ac;" horiz-adv-x="983" 
d="M825 1217v14q0 66 -43.5 102.5t-107.5 36.5t-113 -41t-55 -112l-25 -299h353l-89 -138h-276l-4 -53h248l-88 -135h-172l-31 -336v-16q0 -45 21.5 -74t54.5 -29h180l-12 -137h-181q-139 0 -237 74.5t-98 189.5v10q0 11 2 17l26 301h-149l86 135h75l5 53h-150l88 138h74
l22 266q12 146 124 235.5t265 89.5h76q114 0 190.5 -78t76.5 -190v-24h-136z" />
    <glyph glyph-name="trademark" unicode="&#x2122;" horiz-adv-x="944" 
d="M295 1458h-72l-43 -500h-100l43 500h-70l4 51h242zM807 958q-76 0 -76 70l31 373q0 55 -41 55t-47 -65l-37 -433h-100l36 443v8q0 29 -12 38t-69 9l-43 -498h-101l43 500h-57l4 51h203q57 0 90 -26q39 27 95 27t96 -28t40 -81l-31 -371q0 -16 23 -22h39l-4 -50h-82z" />
    <glyph glyph-name="minus" unicode="&#x2212;" horiz-adv-x="1263" 
d="M59 635v174h1145v-174h-1145z" />
    <glyph glyph-name="slashmath" unicode="&#x2215;" horiz-adv-x="1091" 
d="M193 0h-189l897 1509h186z" />
    <glyph glyph-name="fi" unicode="&#xfb01;" horiz-adv-x="1253" 
d="M1137 0q-141 0 -223.5 61.5t-82.5 169.5q0 16 3 25l57 647h-252l-92 -1059q-12 -123 -117.5 -208t-251.5 -85h-155l12 138h139q84 0 96 121l97 1093h-131l12 137h131l14 177q12 132 110.5 212t239.5 80h140l-13 -137h-69q-121 0 -131 -121l-19 -211h525l-68 -784l-2 -18
q0 -88 80 -101l-12 -137h-37zM1229 1369q0 -58 -41 -99t-98.5 -41t-98.5 42t-41 99t41 98t98.5 41t98.5 -41t41 -99z" />
    <glyph glyph-name="fl" unicode="&#xfb02;" horiz-adv-x="1261" 
d="M1153 0q-141 0 -223 61.5t-82 169.5q0 16 2 25l96 1116h-147q-121 0 -131 -121l-19 -211h150l-13 -137h-147l-94 -1059q-12 -124 -119 -208.5t-250 -84.5h-153l10 138h139q86 0 96 121l97 1093h-132l13 137h131l14 177q12 132 110.5 212t239.5 80h492l-109 -1253l-2 -20
q0 -78 70 -97l-12 -139h-27z" />
    </font>
</defs>
</svg>
